<svg xmlns="http://www.w3.org/2000/svg" xmlns:xlink="http://www.w3.org/1999/xlink" width="1024" zoomAndPan="magnify" viewBox="0 0 768 767.999994" height="1024" preserveAspectRatio="xMidYMid meet" version="1.0"><defs><clipPath id="id1"><path d="M 94.980469 68 L 679.980469 68 L 679.980469 652 L 94.980469 652 Z M 94.980469 68 " clip-rule="nonzero"/></clipPath><clipPath id="id2"><path d="M 387.480469 68.105469 C 382.695312 68.109375 377.914062 68.234375 373.132812 68.472656 C 368.355469 68.710938 363.585938 69.070312 358.820312 69.542969 C 354.058594 70.015625 349.3125 70.605469 344.578125 71.3125 C 339.847656 72.019531 335.132812 72.839844 330.441406 73.777344 C 325.75 74.714844 321.082031 75.769531 316.441406 76.933594 C 311.796875 78.101562 307.1875 79.378906 302.609375 80.773438 C 298.03125 82.164062 293.492188 83.667969 288.984375 85.28125 C 284.480469 86.898438 280.019531 88.621094 275.597656 90.453125 C 271.179688 92.289062 266.804688 94.226562 262.480469 96.277344 C 258.15625 98.324219 253.882812 100.476562 249.664062 102.734375 C 245.445312 104.992188 241.28125 107.351562 237.179688 109.8125 C 233.074219 112.273438 229.035156 114.832031 225.054688 117.492188 C 221.078125 120.152344 217.167969 122.90625 213.324219 125.757812 C 209.480469 128.609375 205.710938 131.550781 202.011719 134.585938 C 198.3125 137.621094 194.691406 140.746094 191.144531 143.960938 C 187.597656 147.175781 184.132812 150.472656 180.75 153.855469 C 177.367188 157.238281 174.066406 160.703125 170.851562 164.246094 C 167.640625 167.792969 164.515625 171.414062 161.476562 175.113281 C 158.441406 178.808594 155.496094 182.578125 152.644531 186.421875 C 149.792969 190.265625 147.039062 194.175781 144.378906 198.152344 C 141.71875 202.128906 139.160156 206.167969 136.695312 210.273438 C 134.234375 214.375 131.875 218.535156 129.617188 222.753906 C 127.359375 226.972656 125.207031 231.246094 123.160156 235.570312 C 121.109375 239.890625 119.167969 244.265625 117.335938 248.683594 C 115.503906 253.101562 113.777344 257.5625 112.164062 262.066406 C 110.546875 266.570312 109.042969 271.113281 107.652344 275.691406 C 106.257812 280.265625 104.980469 284.875 103.8125 289.515625 C 102.648438 294.15625 101.59375 298.824219 100.65625 303.515625 C 99.71875 308.207031 98.898438 312.917969 98.191406 317.648438 C 97.484375 322.382812 96.894531 327.128906 96.421875 331.890625 C 95.945312 336.652344 95.589844 341.421875 95.351562 346.199219 C 95.109375 350.976562 94.988281 355.757812 94.980469 360.542969 C 111.050781 748.503906 663.972656 748.390625 679.980469 360.542969 C 679.976562 355.757812 679.855469 350.976562 679.613281 346.195312 C 679.375 341.417969 679.015625 336.648438 678.542969 331.886719 C 678.070312 327.125 677.480469 322.378906 676.773438 317.648438 C 676.066406 312.917969 675.246094 308.203125 674.304688 303.511719 C 673.367188 298.820312 672.316406 294.15625 671.152344 289.515625 C 669.984375 284.875 668.703125 280.265625 667.3125 275.6875 C 665.917969 271.109375 664.414062 266.570312 662.800781 262.066406 C 661.1875 257.5625 659.460938 253.101562 657.628906 248.683594 C 655.792969 244.261719 653.851562 239.890625 651.804688 235.566406 C 649.757812 231.242188 647.601562 226.972656 645.34375 222.753906 C 643.085938 218.535156 640.726562 214.375 638.265625 210.269531 C 635.804688 206.167969 633.242188 202.128906 630.585938 198.152344 C 627.925781 194.171875 625.167969 190.261719 622.316406 186.421875 C 619.464844 182.578125 616.523438 178.808594 613.484375 175.109375 C 610.449219 171.414062 607.324219 167.792969 604.109375 164.246094 C 600.894531 160.703125 597.597656 157.238281 594.210938 153.855469 C 590.828125 150.472656 587.363281 147.171875 583.820312 143.960938 C 580.273438 140.746094 576.652344 137.621094 572.953125 134.585938 C 569.253906 131.550781 565.480469 128.605469 561.640625 125.757812 C 557.796875 122.90625 553.886719 120.148438 549.90625 117.492188 C 545.929688 114.832031 541.886719 112.273438 537.785156 109.808594 C 533.679688 107.347656 529.519531 104.988281 525.300781 102.734375 C 521.078125 100.476562 516.808594 98.324219 512.480469 96.277344 C 508.15625 94.226562 503.785156 92.289062 499.363281 90.453125 C 494.945312 88.621094 490.480469 86.894531 485.976562 85.28125 C 481.472656 83.667969 476.929688 82.164062 472.351562 80.769531 C 467.773438 79.378906 463.164062 78.101562 458.523438 76.933594 C 453.882812 75.769531 449.214844 74.714844 444.523438 73.777344 C 439.828125 72.839844 435.117188 72.019531 430.382812 71.3125 C 425.652344 70.605469 420.902344 70.015625 416.140625 69.542969 C 411.378906 69.070312 406.609375 68.710938 401.828125 68.472656 C 397.050781 68.234375 392.265625 68.109375 387.480469 68.105469 Z M 387.480469 622.199219 C 383.199219 622.195312 378.921875 622.085938 374.644531 621.871094 C 370.367188 621.65625 366.101562 621.335938 361.839844 620.910156 C 357.578125 620.488281 353.332031 619.960938 349.09375 619.328125 C 344.859375 618.695312 340.644531 617.960938 336.445312 617.121094 C 332.246094 616.28125 328.070312 615.339844 323.917969 614.296875 C 319.765625 613.253906 315.640625 612.109375 311.542969 610.863281 C 307.449219 609.621094 303.382812 608.273438 299.355469 606.828125 C 295.324219 605.382812 291.332031 603.84375 287.375 602.203125 C 283.421875 600.5625 279.507812 598.824219 275.640625 596.992188 C 271.769531 595.160156 267.945312 593.234375 264.171875 591.214844 C 260.394531 589.195312 256.671875 587.085938 253 584.882812 C 249.328125 582.679688 245.714844 580.390625 242.152344 578.011719 C 238.59375 575.628906 235.09375 573.164062 231.65625 570.613281 C 228.21875 568.0625 224.84375 565.429688 221.535156 562.714844 C 218.226562 559.996094 214.984375 557.203125 211.8125 554.328125 C 208.640625 551.453125 205.539062 548.5 202.511719 545.472656 C 199.484375 542.445312 196.53125 539.347656 193.65625 536.175781 C 190.78125 533.003906 187.984375 529.765625 185.269531 526.457031 C 182.550781 523.148438 179.917969 519.773438 177.367188 516.335938 C 174.816406 512.898438 172.347656 509.398438 169.96875 505.839844 C 167.589844 502.28125 165.296875 498.667969 163.09375 494.996094 C 160.894531 491.324219 158.78125 487.601562 156.761719 483.828125 C 154.742188 480.054688 152.816406 476.230469 150.984375 472.363281 C 149.148438 468.492188 147.414062 464.582031 145.773438 460.628906 C 144.132812 456.675781 142.589844 452.683594 141.144531 448.652344 C 139.699219 444.621094 138.351562 440.558594 137.105469 436.464844 C 135.863281 432.367188 134.714844 428.246094 133.671875 424.09375 C 132.628906 419.941406 131.6875 415.765625 130.847656 411.570312 C 130.011719 407.371094 129.273438 403.15625 128.644531 398.921875 C 128.011719 394.6875 127.480469 390.441406 127.058594 386.179688 C 126.632812 381.921875 126.316406 377.652344 126.101562 373.378906 C 125.886719 369.101562 125.777344 364.824219 125.769531 360.542969 C 140.148438 13.421875 634.867188 13.523438 649.191406 360.546875 C 649.1875 364.824219 649.078125 369.105469 648.863281 373.378906 C 648.648438 377.65625 648.328125 381.921875 647.90625 386.183594 C 647.480469 390.441406 646.953125 394.6875 646.320312 398.921875 C 645.6875 403.15625 644.953125 407.371094 644.113281 411.570312 C 643.273438 415.769531 642.332031 419.941406 641.289062 424.09375 C 640.246094 428.246094 639.101562 432.371094 637.855469 436.464844 C 636.609375 440.5625 635.265625 444.625 633.820312 448.652344 C 632.375 452.683594 630.832031 456.675781 629.191406 460.628906 C 627.550781 464.582031 625.8125 468.496094 623.980469 472.363281 C 622.148438 476.234375 620.222656 480.054688 618.203125 483.828125 C 616.179688 487.601562 614.070312 491.324219 611.867188 494.996094 C 609.664062 498.667969 607.375 502.28125 604.992188 505.839844 C 602.613281 509.398438 600.148438 512.898438 597.597656 516.335938 C 595.046875 519.773438 592.410156 523.148438 589.695312 526.457031 C 586.976562 529.765625 584.183594 533.003906 581.304688 536.175781 C 578.429688 539.347656 575.480469 542.449219 572.449219 545.476562 C 569.421875 548.5 566.324219 551.453125 563.152344 554.328125 C 559.980469 557.203125 556.738281 560 553.429688 562.714844 C 550.117188 565.429688 546.746094 568.0625 543.304688 570.613281 C 539.867188 573.167969 536.367188 575.632812 532.808594 578.011719 C 529.25 580.390625 525.632812 582.679688 521.960938 584.882812 C 518.289062 587.085938 514.566406 589.195312 510.792969 591.214844 C 507.015625 593.234375 503.195312 595.160156 499.324219 596.992188 C 495.453125 598.824219 491.542969 600.5625 487.585938 602.203125 C 483.632812 603.84375 479.640625 605.386719 475.609375 606.828125 C 471.578125 608.273438 467.515625 609.621094 463.417969 610.863281 C 459.320312 612.109375 455.199219 613.253906 451.046875 614.296875 C 446.890625 615.34375 442.714844 616.28125 438.519531 617.121094 C 434.320312 617.960938 430.101562 618.695312 425.867188 619.328125 C 421.632812 619.960938 417.386719 620.488281 413.125 620.910156 C 408.863281 621.335938 404.59375 621.65625 400.320312 621.871094 C 396.042969 622.085938 391.761719 622.195312 387.480469 622.199219 Z M 549.96875 312.355469 L 414.03125 221.75 C 412.074219 220.449219 410.035156 219.296875 407.910156 218.292969 C 405.785156 217.292969 403.597656 216.449219 401.351562 215.769531 C 399.101562 215.089844 396.816406 214.578125 394.492188 214.234375 C 392.167969 213.890625 389.832031 213.71875 387.480469 213.71875 C 385.132812 213.71875 382.796875 213.890625 380.472656 214.234375 C 378.148438 214.578125 375.859375 215.089844 373.613281 215.769531 C 371.363281 216.449219 369.175781 217.292969 367.050781 218.292969 C 364.925781 219.296875 362.886719 220.449219 360.933594 221.75 L 224.996094 312.355469 C 224.167969 312.921875 223.40625 313.5625 222.707031 314.28125 C 222.003906 314.996094 221.378906 315.773438 220.832031 316.609375 C 220.28125 317.449219 219.820312 318.332031 219.441406 319.261719 C 219.066406 320.1875 218.785156 321.144531 218.59375 322.128906 C 218.40625 323.113281 218.3125 324.105469 218.316406 325.105469 C 218.320312 326.109375 218.421875 327.101562 218.617188 328.082031 C 218.816406 329.0625 219.109375 330.019531 219.492188 330.941406 C 219.875 331.867188 220.347656 332.746094 220.902344 333.582031 C 221.457031 334.414062 222.089844 335.1875 222.796875 335.898438 C 223.5 336.609375 224.269531 337.242188 225.101562 337.804688 C 225.929688 338.363281 226.808594 338.839844 227.730469 339.226562 C 228.65625 339.617188 229.605469 339.914062 230.589844 340.117188 C 231.570312 340.320312 232.5625 340.425781 233.5625 340.433594 C 234.566406 340.445312 235.558594 340.355469 236.542969 340.171875 C 237.527344 339.988281 238.484375 339.710938 239.417969 339.339844 C 240.347656 338.96875 241.234375 338.511719 242.074219 337.964844 L 254.0625 329.976562 L 254.0625 450.859375 C 254.0625 452.707031 254.15625 454.550781 254.339844 456.386719 C 254.523438 458.226562 254.792969 460.050781 255.15625 461.863281 C 255.519531 463.675781 255.96875 465.464844 256.507812 467.234375 C 257.042969 469 257.667969 470.738281 258.375 472.445312 C 259.082031 474.152344 259.875 475.820312 260.746094 477.449219 C 261.617188 479.078125 262.566406 480.660156 263.59375 482.195312 C 264.621094 483.730469 265.722656 485.214844 266.894531 486.640625 C 268.066406 488.070312 269.304688 489.4375 270.613281 490.746094 C 271.921875 492.050781 273.289062 493.289062 274.714844 494.460938 C 276.144531 495.636719 277.628906 496.734375 279.164062 497.761719 C 280.699219 498.789062 282.28125 499.738281 283.914062 500.609375 C 285.542969 501.480469 287.210938 502.273438 288.917969 502.980469 C 290.625 503.6875 292.363281 504.3125 294.128906 504.847656 C 295.898438 505.386719 297.6875 505.835938 299.5 506.199219 C 301.3125 506.558594 303.136719 506.832031 304.976562 507.015625 C 306.816406 507.199219 308.660156 507.292969 310.507812 507.292969 C 335.976562 507.292969 464.25 507.296875 464.457031 507.292969 C 466.304688 507.292969 468.148438 507.199219 469.984375 507.015625 C 471.824219 506.832031 473.652344 506.558594 475.464844 506.199219 C 477.277344 505.835938 479.066406 505.386719 480.832031 504.847656 C 482.601562 504.3125 484.339844 503.6875 486.046875 502.980469 C 487.753906 502.273438 489.421875 501.480469 491.050781 500.609375 C 492.679688 499.738281 494.265625 498.789062 495.800781 497.761719 C 497.335938 496.734375 498.820312 495.636719 500.246094 494.460938 C 501.675781 493.289062 503.042969 492.050781 504.351562 490.746094 C 505.65625 489.4375 506.898438 488.070312 508.070312 486.640625 C 509.242188 485.214844 510.34375 483.730469 511.367188 482.195312 C 512.394531 480.660156 513.347656 479.078125 514.21875 477.449219 C 515.089844 475.820312 515.878906 474.152344 516.589844 472.445312 C 517.296875 470.738281 517.917969 469 518.457031 467.234375 C 518.996094 465.464844 519.445312 463.675781 519.808594 461.863281 C 520.167969 460.050781 520.441406 458.226562 520.625 456.386719 C 520.808594 454.550781 520.902344 452.707031 520.902344 450.859375 L 520.902344 329.976562 C 525.617188 332.824219 535.449219 341.238281 541.414062 340.550781 C 542.226562 340.535156 543.035156 340.457031 543.835938 340.316406 C 544.636719 340.171875 545.417969 339.96875 546.1875 339.703125 C 546.957031 339.4375 547.699219 339.113281 548.417969 338.730469 C 549.132812 338.347656 549.816406 337.910156 550.464844 337.417969 C 551.113281 336.929688 551.71875 336.390625 552.285156 335.804688 C 552.847656 335.21875 553.363281 334.589844 553.828125 333.925781 C 554.292969 333.257812 554.703125 332.558594 555.058594 331.828125 C 555.414062 331.09375 555.707031 330.339844 555.945312 329.5625 C 556.179688 328.785156 556.355469 327.992188 556.464844 327.1875 C 556.578125 326.382812 556.625 325.574219 556.609375 324.761719 C 556.589844 323.945312 556.511719 323.140625 556.367188 322.339844 C 556.226562 321.539062 556.019531 320.753906 555.753906 319.988281 C 555.488281 319.21875 555.160156 318.476562 554.777344 317.761719 C 554.394531 317.042969 553.957031 316.359375 553.464844 315.710938 C 552.976562 315.066406 552.4375 314.460938 551.847656 313.894531 C 551.261719 313.332031 550.636719 312.820312 549.96875 312.355469 Z M 406.773438 476.511719 L 368.1875 476.511719 L 368.1875 434.433594 C 368.1875 433.800781 368.21875 433.171875 368.28125 432.542969 C 368.34375 431.914062 368.4375 431.289062 368.558594 430.671875 C 368.683594 430.050781 368.835938 429.441406 369.019531 428.835938 C 369.203125 428.230469 369.414062 427.636719 369.65625 427.050781 C 369.898438 426.46875 370.167969 425.898438 370.464844 425.339844 C 370.765625 424.785156 371.089844 424.242188 371.441406 423.71875 C 371.789062 423.191406 372.167969 422.6875 372.566406 422.199219 C 372.96875 421.707031 373.390625 421.242188 373.839844 420.792969 C 374.285156 420.347656 374.753906 419.925781 375.242188 419.523438 C 375.730469 419.121094 376.238281 418.746094 376.761719 418.394531 C 377.289062 418.042969 377.828125 417.71875 378.386719 417.421875 C 378.945312 417.125 379.515625 416.855469 380.097656 416.613281 C 380.683594 416.371094 381.277344 416.160156 381.882812 415.976562 C 382.484375 415.792969 383.097656 415.640625 383.71875 415.515625 C 384.335938 415.390625 384.960938 415.300781 385.589844 415.238281 C 386.21875 415.175781 386.851562 415.144531 387.480469 415.144531 C 388.113281 415.144531 388.742188 415.175781 389.371094 415.238281 C 390 415.300781 390.625 415.390625 391.246094 415.515625 C 391.867188 415.640625 392.476562 415.792969 393.082031 415.976562 C 393.6875 416.160156 394.28125 416.371094 394.863281 416.613281 C 395.449219 416.855469 396.019531 417.125 396.578125 417.421875 C 397.132812 417.71875 397.675781 418.042969 398.199219 418.394531 C 398.726562 418.746094 399.234375 419.121094 399.722656 419.523438 C 400.210938 419.925781 400.675781 420.347656 401.125 420.792969 C 401.570312 421.242188 401.996094 421.707031 402.394531 422.195312 C 402.796875 422.6875 403.171875 423.191406 403.523438 423.71875 C 403.875 424.242188 404.199219 424.785156 404.496094 425.339844 C 404.796875 425.898438 405.066406 426.46875 405.304688 427.050781 C 405.546875 427.636719 405.761719 428.230469 405.945312 428.835938 C 406.128906 429.441406 406.28125 430.050781 406.40625 430.671875 C 406.527344 431.289062 406.621094 431.914062 406.683594 432.542969 C 406.746094 433.171875 406.773438 433.800781 406.773438 434.433594 Z M 490.113281 450.859375 C 490.113281 451.699219 490.070312 452.535156 489.988281 453.371094 C 489.902344 454.207031 489.78125 455.035156 489.617188 455.859375 C 489.453125 456.683594 489.246094 457.496094 489.003906 458.300781 C 488.757812 459.105469 488.476562 459.894531 488.152344 460.671875 C 487.832031 461.445312 487.472656 462.203125 487.074219 462.945312 C 486.679688 463.6875 486.246094 464.40625 485.78125 465.101562 C 485.3125 465.800781 484.8125 466.476562 484.28125 467.125 C 483.746094 467.773438 483.183594 468.394531 482.589844 468.988281 C 481.996094 469.582031 481.375 470.148438 480.726562 470.679688 C 480.074219 471.210938 479.402344 471.710938 478.703125 472.179688 C 478.003906 472.644531 477.285156 473.078125 476.546875 473.472656 C 475.804688 473.871094 475.046875 474.230469 474.269531 474.550781 C 473.492188 474.871094 472.703125 475.15625 471.902344 475.398438 C 471.097656 475.644531 470.28125 475.847656 469.460938 476.011719 C 468.636719 476.175781 467.804688 476.300781 466.96875 476.382812 C 466.132812 476.46875 465.296875 476.507812 464.457031 476.511719 L 437.566406 476.511719 L 437.566406 434.433594 C 435.445312 368.230469 339.484375 368.304688 337.398438 434.433594 L 337.398438 476.511719 L 310.507812 476.511719 C 309.667969 476.507812 308.828125 476.46875 307.992188 476.382812 C 307.15625 476.300781 306.328125 476.175781 305.503906 476.011719 C 304.679688 475.847656 303.867188 475.644531 303.0625 475.398438 C 302.257812 475.15625 301.46875 474.871094 300.695312 474.550781 C 299.917969 474.230469 299.160156 473.871094 298.417969 473.472656 C 297.675781 473.078125 296.957031 472.644531 296.257812 472.179688 C 295.5625 471.710938 294.886719 471.210938 294.238281 470.679688 C 293.589844 470.144531 292.96875 469.582031 292.375 468.988281 C 291.777344 468.394531 291.214844 467.773438 290.683594 467.125 C 290.148438 466.476562 289.648438 465.800781 289.183594 465.101562 C 288.714844 464.40625 288.285156 463.6875 287.886719 462.945312 C 287.492188 462.203125 287.132812 461.445312 286.808594 460.671875 C 286.488281 459.894531 286.207031 459.105469 285.960938 458.300781 C 285.714844 457.496094 285.511719 456.683594 285.347656 455.859375 C 285.183594 455.035156 285.058594 454.207031 284.976562 453.371094 C 284.894531 452.535156 284.851562 451.699219 284.851562 450.859375 L 284.851562 309.457031 L 378.011719 247.363281 C 378.714844 246.910156 379.445312 246.511719 380.203125 246.167969 C 380.964844 245.820312 381.746094 245.527344 382.546875 245.292969 C 383.347656 245.058594 384.164062 244.882812 384.988281 244.765625 C 385.816406 244.644531 386.648438 244.585938 387.480469 244.585938 C 388.316406 244.585938 389.148438 244.644531 389.972656 244.765625 C 390.800781 244.882812 391.613281 245.058594 392.417969 245.292969 C 393.21875 245.527344 394 245.820312 394.757812 246.167969 C 395.519531 246.511719 396.25 246.910156 396.953125 247.363281 L 490.113281 309.457031 Z M 490.113281 450.859375 " clip-rule="nonzero"/></clipPath><linearGradient x1="3.5" gradientTransform="matrix(10.263158, 0, 0, 10.260998, 59.060714, 32.19124)" y1="31.926001" x2="60.499998" gradientUnits="userSpaceOnUse" y2="31.926001" id="id3"><stop stop-opacity="1" stop-color="rgb(100%, 34.498596%, 35.299683%)" offset="0"/><stop stop-opacity="1" stop-color="rgb(99.989319%, 34.49707%, 35.415649%)" offset="0.0078125"/><stop stop-opacity="1" stop-color="rgb(99.967957%, 34.494019%, 35.647583%)" offset="0.015625"/><stop stop-opacity="1" stop-color="rgb(99.946594%, 34.490967%, 35.881042%)" offset="0.0234375"/><stop stop-opacity="1" stop-color="rgb(99.925232%, 34.487915%, 36.112976%)" offset="0.03125"/><stop stop-opacity="1" stop-color="rgb(99.90387%, 34.484863%, 36.346436%)" offset="0.0390625"/><stop stop-opacity="1" stop-color="rgb(99.882507%, 34.481812%, 36.579895%)" offset="0.046875"/><stop stop-opacity="1" stop-color="rgb(99.862671%, 34.47876%, 36.811829%)" offset="0.0546875"/><stop stop-opacity="1" stop-color="rgb(99.841309%, 34.475708%, 37.045288%)" offset="0.0625"/><stop stop-opacity="1" stop-color="rgb(99.819946%, 34.472656%, 37.277222%)" offset="0.0703125"/><stop stop-opacity="1" stop-color="rgb(99.798584%, 34.469604%, 37.510681%)" offset="0.078125"/><stop stop-opacity="1" stop-color="rgb(99.777222%, 34.466553%, 37.742615%)" offset="0.0859375"/><stop stop-opacity="1" stop-color="rgb(99.755859%, 34.463501%, 37.976074%)" offset="0.09375"/><stop stop-opacity="1" stop-color="rgb(99.736023%, 34.460449%, 38.209534%)" offset="0.101562"/><stop stop-opacity="1" stop-color="rgb(99.714661%, 34.457397%, 38.441467%)" offset="0.109375"/><stop stop-opacity="1" stop-color="rgb(99.693298%, 34.454346%, 38.674927%)" offset="0.117188"/><stop stop-opacity="1" stop-color="rgb(99.671936%, 34.451294%, 38.90686%)" offset="0.125"/><stop stop-opacity="1" stop-color="rgb(99.650574%, 34.448242%, 39.14032%)" offset="0.132812"/><stop stop-opacity="1" stop-color="rgb(99.629211%, 34.44519%, 39.372253%)" offset="0.140625"/><stop stop-opacity="1" stop-color="rgb(99.609375%, 34.442139%, 39.605713%)" offset="0.148438"/><stop stop-opacity="1" stop-color="rgb(99.588013%, 34.437561%, 39.839172%)" offset="0.15625"/><stop stop-opacity="1" stop-color="rgb(99.56665%, 34.434509%, 40.071106%)" offset="0.164062"/><stop stop-opacity="1" stop-color="rgb(99.545288%, 34.431458%, 40.304565%)" offset="0.171875"/><stop stop-opacity="1" stop-color="rgb(99.523926%, 34.428406%, 40.536499%)" offset="0.179688"/><stop stop-opacity="1" stop-color="rgb(99.504089%, 34.425354%, 40.769958%)" offset="0.1875"/><stop stop-opacity="1" stop-color="rgb(99.482727%, 34.422302%, 41.003418%)" offset="0.195312"/><stop stop-opacity="1" stop-color="rgb(99.461365%, 34.41925%, 41.235352%)" offset="0.203125"/><stop stop-opacity="1" stop-color="rgb(99.440002%, 34.416199%, 41.468811%)" offset="0.210938"/><stop stop-opacity="1" stop-color="rgb(99.41864%, 34.413147%, 41.700745%)" offset="0.21875"/><stop stop-opacity="1" stop-color="rgb(99.397278%, 34.410095%, 41.934204%)" offset="0.226562"/><stop stop-opacity="1" stop-color="rgb(99.377441%, 34.407043%, 42.166138%)" offset="0.234375"/><stop stop-opacity="1" stop-color="rgb(99.356079%, 34.403992%, 42.399597%)" offset="0.242188"/><stop stop-opacity="1" stop-color="rgb(99.334717%, 34.40094%, 42.633057%)" offset="0.25"/><stop stop-opacity="1" stop-color="rgb(99.313354%, 34.397888%, 42.86499%)" offset="0.257812"/><stop stop-opacity="1" stop-color="rgb(99.291992%, 34.394836%, 43.09845%)" offset="0.265625"/><stop stop-opacity="1" stop-color="rgb(99.27063%, 34.391785%, 43.330383%)" offset="0.273438"/><stop stop-opacity="1" stop-color="rgb(99.250793%, 34.388733%, 43.563843%)" offset="0.28125"/><stop stop-opacity="1" stop-color="rgb(99.229431%, 34.385681%, 43.795776%)" offset="0.289062"/><stop stop-opacity="1" stop-color="rgb(99.208069%, 34.382629%, 44.029236%)" offset="0.296875"/><stop stop-opacity="1" stop-color="rgb(99.186707%, 34.379578%, 44.262695%)" offset="0.304688"/><stop stop-opacity="1" stop-color="rgb(99.165344%, 34.376526%, 44.494629%)" offset="0.3125"/><stop stop-opacity="1" stop-color="rgb(99.145508%, 34.371948%, 44.728088%)" offset="0.320312"/><stop stop-opacity="1" stop-color="rgb(99.124146%, 34.368896%, 44.960022%)" offset="0.328125"/><stop stop-opacity="1" stop-color="rgb(99.102783%, 34.365845%, 45.193481%)" offset="0.335938"/><stop stop-opacity="1" stop-color="rgb(99.081421%, 34.362793%, 45.425415%)" offset="0.34375"/><stop stop-opacity="1" stop-color="rgb(99.060059%, 34.359741%, 45.658875%)" offset="0.351562"/><stop stop-opacity="1" stop-color="rgb(99.038696%, 34.356689%, 45.892334%)" offset="0.359375"/><stop stop-opacity="1" stop-color="rgb(99.01886%, 34.353638%, 46.124268%)" offset="0.367188"/><stop stop-opacity="1" stop-color="rgb(98.997498%, 34.350586%, 46.357727%)" offset="0.375"/><stop stop-opacity="1" stop-color="rgb(98.976135%, 34.347534%, 46.589661%)" offset="0.382812"/><stop stop-opacity="1" stop-color="rgb(98.954773%, 34.344482%, 46.82312%)" offset="0.390625"/><stop stop-opacity="1" stop-color="rgb(98.933411%, 34.341431%, 47.05658%)" offset="0.398438"/><stop stop-opacity="1" stop-color="rgb(98.912048%, 34.338379%, 47.288513%)" offset="0.40625"/><stop stop-opacity="1" stop-color="rgb(98.892212%, 34.335327%, 47.521973%)" offset="0.414062"/><stop stop-opacity="1" stop-color="rgb(98.87085%, 34.332275%, 47.753906%)" offset="0.421875"/><stop stop-opacity="1" stop-color="rgb(98.849487%, 34.329224%, 47.987366%)" offset="0.429688"/><stop stop-opacity="1" stop-color="rgb(98.828125%, 34.326172%, 48.219299%)" offset="0.4375"/><stop stop-opacity="1" stop-color="rgb(98.806763%, 34.32312%, 48.452759%)" offset="0.445312"/><stop stop-opacity="1" stop-color="rgb(98.786926%, 34.320068%, 48.686218%)" offset="0.453125"/><stop stop-opacity="1" stop-color="rgb(98.765564%, 34.317017%, 48.918152%)" offset="0.460938"/><stop stop-opacity="1" stop-color="rgb(98.744202%, 34.313965%, 49.151611%)" offset="0.46875"/><stop stop-opacity="1" stop-color="rgb(98.722839%, 34.309387%, 49.383545%)" offset="0.476562"/><stop stop-opacity="1" stop-color="rgb(98.701477%, 34.306335%, 49.617004%)" offset="0.484375"/><stop stop-opacity="1" stop-color="rgb(98.680115%, 34.303284%, 49.848938%)" offset="0.492188"/><stop stop-opacity="1" stop-color="rgb(98.660278%, 34.300232%, 50.082397%)" offset="0.5"/><stop stop-opacity="1" stop-color="rgb(98.638916%, 34.29718%, 50.315857%)" offset="0.507812"/><stop stop-opacity="1" stop-color="rgb(98.617554%, 34.294128%, 50.547791%)" offset="0.515625"/><stop stop-opacity="1" stop-color="rgb(98.596191%, 34.291077%, 50.78125%)" offset="0.523438"/><stop stop-opacity="1" stop-color="rgb(98.574829%, 34.288025%, 51.013184%)" offset="0.53125"/><stop stop-opacity="1" stop-color="rgb(98.553467%, 34.284973%, 51.246643%)" offset="0.539062"/><stop stop-opacity="1" stop-color="rgb(98.53363%, 34.281921%, 51.478577%)" offset="0.546875"/><stop stop-opacity="1" stop-color="rgb(98.512268%, 34.27887%, 51.712036%)" offset="0.554688"/><stop stop-opacity="1" stop-color="rgb(98.490906%, 34.275818%, 51.945496%)" offset="0.5625"/><stop stop-opacity="1" stop-color="rgb(98.469543%, 34.272766%, 52.177429%)" offset="0.570312"/><stop stop-opacity="1" stop-color="rgb(98.448181%, 34.269714%, 52.410889%)" offset="0.578125"/><stop stop-opacity="1" stop-color="rgb(98.428345%, 34.266663%, 52.642822%)" offset="0.585938"/><stop stop-opacity="1" stop-color="rgb(98.406982%, 34.263611%, 52.876282%)" offset="0.59375"/><stop stop-opacity="1" stop-color="rgb(98.38562%, 34.260559%, 53.108215%)" offset="0.601562"/><stop stop-opacity="1" stop-color="rgb(98.364258%, 34.257507%, 53.341675%)" offset="0.609375"/><stop stop-opacity="1" stop-color="rgb(98.342896%, 34.254456%, 53.575134%)" offset="0.617188"/><stop stop-opacity="1" stop-color="rgb(98.321533%, 34.251404%, 53.807068%)" offset="0.625"/><stop stop-opacity="1" stop-color="rgb(98.301697%, 34.248352%, 54.040527%)" offset="0.632812"/><stop stop-opacity="1" stop-color="rgb(98.280334%, 34.243774%, 54.272461%)" offset="0.640625"/><stop stop-opacity="1" stop-color="rgb(98.258972%, 34.240723%, 54.50592%)" offset="0.648438"/><stop stop-opacity="1" stop-color="rgb(98.23761%, 34.237671%, 54.73938%)" offset="0.65625"/><stop stop-opacity="1" stop-color="rgb(98.216248%, 34.234619%, 54.971313%)" offset="0.664062"/><stop stop-opacity="1" stop-color="rgb(98.194885%, 34.231567%, 55.204773%)" offset="0.671875"/><stop stop-opacity="1" stop-color="rgb(98.175049%, 34.228516%, 55.436707%)" offset="0.679688"/><stop stop-opacity="1" stop-color="rgb(98.153687%, 34.225464%, 55.670166%)" offset="0.6875"/><stop stop-opacity="1" stop-color="rgb(98.132324%, 34.222412%, 55.9021%)" offset="0.695312"/><stop stop-opacity="1" stop-color="rgb(98.110962%, 34.21936%, 56.135559%)" offset="0.703125"/><stop stop-opacity="1" stop-color="rgb(98.0896%, 34.216309%, 56.369019%)" offset="0.710938"/><stop stop-opacity="1" stop-color="rgb(98.069763%, 34.213257%, 56.600952%)" offset="0.71875"/><stop stop-opacity="1" stop-color="rgb(98.048401%, 34.210205%, 56.834412%)" offset="0.726562"/><stop stop-opacity="1" stop-color="rgb(98.027039%, 34.207153%, 57.066345%)" offset="0.734375"/><stop stop-opacity="1" stop-color="rgb(98.005676%, 34.204102%, 57.299805%)" offset="0.742188"/><stop stop-opacity="1" stop-color="rgb(97.984314%, 34.20105%, 57.531738%)" offset="0.75"/><stop stop-opacity="1" stop-color="rgb(97.962952%, 34.197998%, 57.765198%)" offset="0.757812"/><stop stop-opacity="1" stop-color="rgb(97.943115%, 34.194946%, 57.998657%)" offset="0.765625"/><stop stop-opacity="1" stop-color="rgb(97.921753%, 34.191895%, 58.230591%)" offset="0.773438"/><stop stop-opacity="1" stop-color="rgb(97.900391%, 34.188843%, 58.46405%)" offset="0.78125"/><stop stop-opacity="1" stop-color="rgb(97.879028%, 34.185791%, 58.695984%)" offset="0.789062"/><stop stop-opacity="1" stop-color="rgb(97.857666%, 34.182739%, 58.929443%)" offset="0.796875"/><stop stop-opacity="1" stop-color="rgb(97.836304%, 34.178162%, 59.161377%)" offset="0.804688"/><stop stop-opacity="1" stop-color="rgb(97.816467%, 34.17511%, 59.394836%)" offset="0.8125"/><stop stop-opacity="1" stop-color="rgb(97.795105%, 34.172058%, 59.628296%)" offset="0.820312"/><stop stop-opacity="1" stop-color="rgb(97.773743%, 34.169006%, 59.860229%)" offset="0.828125"/><stop stop-opacity="1" stop-color="rgb(97.75238%, 34.165955%, 60.093689%)" offset="0.835938"/><stop stop-opacity="1" stop-color="rgb(97.731018%, 34.162903%, 60.325623%)" offset="0.84375"/><stop stop-opacity="1" stop-color="rgb(97.711182%, 34.159851%, 60.559082%)" offset="0.851562"/><stop stop-opacity="1" stop-color="rgb(97.689819%, 34.156799%, 60.791016%)" offset="0.859375"/><stop stop-opacity="1" stop-color="rgb(97.668457%, 34.153748%, 61.024475%)" offset="0.867188"/><stop stop-opacity="1" stop-color="rgb(97.647095%, 34.150696%, 61.257935%)" offset="0.875"/><stop stop-opacity="1" stop-color="rgb(97.625732%, 34.147644%, 61.489868%)" offset="0.882812"/><stop stop-opacity="1" stop-color="rgb(97.60437%, 34.144592%, 61.723328%)" offset="0.890625"/><stop stop-opacity="1" stop-color="rgb(97.584534%, 34.141541%, 61.955261%)" offset="0.898438"/><stop stop-opacity="1" stop-color="rgb(97.563171%, 34.138489%, 62.188721%)" offset="0.90625"/><stop stop-opacity="1" stop-color="rgb(97.541809%, 34.135437%, 62.42218%)" offset="0.914062"/><stop stop-opacity="1" stop-color="rgb(97.520447%, 34.132385%, 62.654114%)" offset="0.921875"/><stop stop-opacity="1" stop-color="rgb(97.499084%, 34.129333%, 62.887573%)" offset="0.929688"/><stop stop-opacity="1" stop-color="rgb(97.477722%, 34.126282%, 63.119507%)" offset="0.9375"/><stop stop-opacity="1" stop-color="rgb(97.457886%, 34.12323%, 63.352966%)" offset="0.945312"/><stop stop-opacity="1" stop-color="rgb(97.436523%, 34.120178%, 63.5849%)" offset="0.953125"/><stop stop-opacity="1" stop-color="rgb(97.415161%, 34.117126%, 63.818359%)" offset="0.960938"/><stop stop-opacity="1" stop-color="rgb(97.393799%, 34.112549%, 64.051819%)" offset="0.96875"/><stop stop-opacity="1" stop-color="rgb(97.372437%, 34.109497%, 64.283752%)" offset="0.976562"/><stop stop-opacity="1" stop-color="rgb(97.3526%, 34.106445%, 64.517212%)" offset="0.984375"/><stop stop-opacity="1" stop-color="rgb(97.331238%, 34.103394%, 64.749146%)" offset="0.992188"/><stop stop-opacity="1" stop-color="rgb(97.309875%, 34.100342%, 64.982605%)" offset="1"/></linearGradient></defs><g clip-path="url(#id1)"><g clip-path="url(#id2)"><path fill="url(#id3)" d="M 94.980469 13.421875 L 94.980469 748.503906 L 679.980469 748.503906 L 679.980469 13.421875 Z M 94.980469 13.421875 " fill-rule="nonzero"/></g></g></svg>