<svg xmlns="http://www.w3.org/2000/svg" xmlns:xlink="http://www.w3.org/1999/xlink" width="1024" zoomAndPan="magnify" viewBox="0 0 768 767.999994" height="1024" preserveAspectRatio="xMidYMid meet" version="1.0"><defs><clipPath id="id1"><path d="M 99 98 L 681 98 L 681 680 L 99 680 Z M 99 98 " clip-rule="nonzero"/></clipPath><clipPath id="id2"><path d="M 547.796875 104.476562 C 442.519531 95.984375 337.246094 95.96875 231.96875 104.425781 C 229.949219 104.578125 227.9375 104.773438 225.925781 105.015625 C 223.917969 105.253906 221.914062 105.539062 219.917969 105.871094 C 217.921875 106.199219 215.933594 106.574219 213.953125 106.992188 C 211.972656 107.40625 210 107.871094 208.042969 108.375 C 206.082031 108.878906 204.132812 109.425781 202.199219 110.019531 C 200.261719 110.609375 198.339844 111.242188 196.433594 111.917969 C 194.523438 112.59375 192.632812 113.3125 190.757812 114.070312 C 188.882812 114.832031 187.023438 115.632812 185.183594 116.472656 C 183.34375 117.316406 181.523438 118.199219 179.71875 119.121094 C 177.917969 120.042969 176.140625 121.003906 174.378906 122.007812 C 172.621094 123.007812 170.886719 124.046875 169.171875 125.125 C 167.460938 126.203125 165.769531 127.320312 164.109375 128.472656 C 162.445312 129.625 160.808594 130.8125 159.195312 132.039062 C 157.585938 133.265625 156.003906 134.523438 154.449219 135.820312 C 152.890625 137.117188 151.367188 138.445312 149.871094 139.808594 C 148.375 141.171875 146.910156 142.566406 145.472656 143.992188 C 144.039062 145.421875 142.636719 146.878906 141.269531 148.371094 C 139.898438 149.859375 138.5625 151.378906 137.257812 152.925781 C 135.957031 154.476562 134.6875 156.054688 133.453125 157.65625 C 132.222656 159.261719 131.023438 160.894531 129.863281 162.550781 C 128.703125 164.210938 127.582031 165.894531 126.492188 167.601562 C 125.40625 169.308594 124.359375 171.039062 123.351562 172.792969 C 122.339844 174.546875 121.371094 176.324219 120.4375 178.121094 C 119.507812 179.917969 118.617188 181.734375 117.765625 183.570312 C 116.914062 185.40625 116.105469 187.261719 115.335938 189.132812 C 114.570312 191.003906 113.839844 192.894531 113.15625 194.796875 C 112.472656 196.703125 111.828125 198.621094 111.230469 200.554688 C 110.628906 202.488281 110.070312 204.433594 109.558594 206.390625 C 109.042969 208.347656 108.574219 210.316406 108.144531 212.292969 C 107.71875 214.273438 107.335938 216.257812 106.996094 218.253906 C 106.65625 220.25 106.363281 222.25 106.113281 224.257812 C 105.859375 226.265625 105.65625 228.28125 105.492188 230.296875 C 96.972656 335.570312 96.957031 440.847656 105.445312 546.125 C 105.597656 548.140625 105.792969 550.15625 106.035156 552.164062 C 106.273438 554.175781 106.558594 556.179688 106.890625 558.175781 C 107.21875 560.171875 107.59375 562.160156 108.007812 564.140625 C 108.425781 566.121094 108.886719 568.089844 109.394531 570.050781 C 109.898438 572.011719 110.445312 573.960938 111.035156 575.894531 C 111.628906 577.832031 112.261719 579.753906 112.9375 581.660156 C 113.613281 583.566406 114.332031 585.460938 115.089844 587.335938 C 115.851562 589.210938 116.652344 591.070312 117.492188 592.910156 C 118.335938 594.75 119.21875 596.570312 120.140625 598.371094 C 121.0625 600.171875 122.023438 601.953125 123.027344 603.710938 C 124.027344 605.472656 125.066406 607.207031 126.144531 608.921875 C 127.222656 610.632812 128.339844 612.320312 129.492188 613.984375 C 130.644531 615.648438 131.832031 617.285156 133.058594 618.894531 C 134.285156 620.507812 135.542969 622.089844 136.839844 623.644531 C 138.132812 625.199219 139.464844 626.726562 140.828125 628.222656 C 142.1875 629.71875 143.585938 631.183594 145.011719 632.617188 C 146.441406 634.054688 147.898438 635.453125 149.386719 636.824219 C 150.878906 638.195312 152.398438 639.53125 153.945312 640.835938 C 155.496094 642.136719 157.070312 643.40625 158.675781 644.636719 C 160.28125 645.871094 161.914062 647.066406 163.570312 648.226562 C 165.230469 649.390625 166.914062 650.511719 168.621094 651.597656 C 170.328125 652.683594 172.058594 653.734375 173.8125 654.742188 C 175.566406 655.753906 177.34375 656.722656 179.140625 657.652344 C 180.9375 658.585938 182.753906 659.476562 184.589844 660.328125 C 186.425781 661.175781 188.28125 661.988281 190.152344 662.753906 C 192.023438 663.523438 193.914062 664.25 195.816406 664.9375 C 197.722656 665.621094 199.640625 666.265625 201.574219 666.863281 C 203.503906 667.464844 205.449219 668.023438 207.410156 668.535156 C 209.367188 669.050781 211.332031 669.519531 213.3125 669.949219 C 215.289062 670.375 217.277344 670.757812 219.273438 671.097656 C 221.269531 671.433594 223.269531 671.730469 225.277344 671.980469 C 227.285156 672.230469 229.300781 672.4375 231.316406 672.597656 C 336.589844 681.121094 441.867188 681.136719 547.144531 672.648438 C 549.160156 672.496094 551.175781 672.300781 553.183594 672.058594 C 555.195312 671.820312 557.199219 671.535156 559.195312 671.203125 C 561.191406 670.875 563.179688 670.5 565.160156 670.082031 C 567.140625 669.664062 569.109375 669.203125 571.070312 668.699219 C 573.03125 668.195312 574.976562 667.648438 576.914062 667.054688 C 578.847656 666.464844 580.769531 665.832031 582.679688 665.15625 C 584.585938 664.480469 586.476562 663.761719 588.355469 663.003906 C 590.230469 662.242188 592.089844 661.441406 593.929688 660.601562 C 595.769531 659.757812 597.589844 658.875 599.390625 657.953125 C 601.191406 657.03125 602.972656 656.070312 604.730469 655.066406 C 606.492188 654.066406 608.226562 653.027344 609.941406 651.949219 C 611.652344 650.871094 613.339844 649.753906 615.003906 648.601562 C 616.667969 647.449219 618.304688 646.261719 619.914062 645.035156 C 621.527344 643.808594 623.109375 642.550781 624.664062 641.253906 C 626.21875 639.957031 627.746094 638.628906 629.242188 637.265625 C 630.738281 635.902344 632.203125 634.507812 633.636719 633.082031 C 635.070312 631.652344 636.472656 630.195312 637.84375 628.703125 C 639.214844 627.214844 640.550781 625.695312 641.851562 624.148438 C 643.15625 622.597656 644.425781 621.019531 645.65625 619.414062 C 646.890625 617.8125 648.085938 616.179688 649.246094 614.519531 C 650.40625 612.863281 651.53125 611.179688 652.617188 609.472656 C 653.703125 607.765625 654.753906 606.035156 655.761719 604.28125 C 656.773438 602.527344 657.742188 600.75 658.671875 598.953125 C 659.605469 597.15625 660.496094 595.339844 661.347656 593.503906 C 662.195312 591.667969 663.007812 589.8125 663.773438 587.941406 C 664.542969 586.070312 665.269531 584.179688 665.957031 582.277344 C 666.640625 580.371094 667.28125 578.453125 667.882812 576.519531 C 668.484375 574.585938 669.039062 572.640625 669.554688 570.683594 C 670.070312 568.726562 670.539062 566.757812 670.964844 564.78125 C 671.394531 562.800781 671.777344 560.816406 672.117188 558.820312 C 672.453125 556.824219 672.75 554.824219 673 552.816406 C 673.25 550.804688 673.457031 548.792969 673.617188 546.777344 C 677.863281 494.328125 680.015625 441.09375 680.015625 388.535156 C 680.015625 336.179688 677.882812 283.160156 673.667969 230.949219 C 673.515625 228.929688 673.320312 226.917969 673.078125 224.90625 C 672.839844 222.898438 672.554688 220.894531 672.222656 218.898438 C 671.894531 216.902344 671.519531 214.914062 671.101562 212.933594 C 670.683594 210.953125 670.222656 208.980469 669.71875 207.023438 C 669.214844 205.0625 668.667969 203.113281 668.074219 201.179688 C 667.484375 199.242188 666.851562 197.320312 666.175781 195.414062 C 665.5 193.507812 664.78125 191.613281 664.019531 189.738281 C 663.261719 187.863281 662.460938 186.003906 661.617188 184.164062 C 660.777344 182.324219 659.894531 180.503906 658.972656 178.699219 C 658.050781 176.898438 657.085938 175.121094 656.085938 173.359375 C 655.085938 171.601562 654.046875 169.867188 652.96875 168.152344 C 651.890625 166.441406 650.773438 164.753906 649.621094 163.089844 C 648.46875 161.425781 647.277344 159.789062 646.054688 158.175781 C 644.828125 156.566406 643.566406 154.984375 642.273438 153.429688 C 640.976562 151.875 639.648438 150.347656 638.285156 148.851562 C 636.921875 147.355469 635.527344 145.890625 634.101562 144.457031 C 632.671875 143.019531 631.214844 141.617188 629.722656 140.25 C 628.234375 138.878906 626.714844 137.542969 625.164062 136.238281 C 623.617188 134.9375 622.039062 133.667969 620.433594 132.4375 C 618.828125 131.203125 617.199219 130.007812 615.539062 128.84375 C 613.882812 127.683594 612.199219 126.5625 610.492188 125.476562 C 608.785156 124.386719 607.054688 123.339844 605.300781 122.332031 C 603.546875 121.320312 601.769531 120.351562 599.972656 119.417969 C 598.175781 118.488281 596.359375 117.597656 594.523438 116.746094 C 592.6875 115.894531 590.832031 115.085938 588.960938 114.316406 C 587.085938 113.550781 585.199219 112.824219 583.292969 112.136719 C 581.390625 111.453125 579.472656 110.808594 577.539062 110.210938 C 575.605469 109.609375 573.660156 109.050781 571.703125 108.539062 C 569.746094 108.023438 567.777344 107.554688 565.800781 107.125 C 563.820312 106.699219 561.835938 106.316406 559.839844 105.976562 C 557.84375 105.636719 555.84375 105.34375 553.832031 105.09375 C 551.824219 104.84375 549.8125 104.636719 547.796875 104.476562 Z M 643.140625 544.308594 C 643.015625 545.878906 642.855469 547.441406 642.660156 549.003906 C 642.460938 550.566406 642.230469 552.125 641.96875 553.675781 C 641.703125 555.230469 641.402344 556.773438 641.070312 558.3125 C 640.738281 559.851562 640.371094 561.382812 639.96875 562.90625 C 639.566406 564.429688 639.132812 565.941406 638.664062 567.445312 C 638.199219 568.949219 637.695312 570.441406 637.164062 571.921875 C 636.628906 573.402344 636.0625 574.871094 635.464844 576.328125 C 634.863281 577.785156 634.234375 579.226562 633.570312 580.65625 C 632.910156 582.082031 632.214844 583.496094 631.488281 584.894531 C 630.765625 586.289062 630.007812 587.671875 629.222656 589.035156 C 628.433594 590.398438 627.617188 591.746094 626.773438 593.074219 C 625.925781 594.402344 625.050781 595.710938 624.148438 597 C 623.246094 598.289062 622.3125 599.558594 621.351562 600.804688 C 620.390625 602.054688 619.40625 603.28125 618.390625 604.484375 C 617.375 605.6875 616.335938 606.871094 615.269531 608.027344 C 614.203125 609.1875 613.113281 610.320312 611.996094 611.429688 C 610.878906 612.539062 609.738281 613.625 608.574219 614.683594 C 607.40625 615.746094 606.21875 616.777344 605.011719 617.785156 C 603.800781 618.792969 602.566406 619.773438 601.3125 620.722656 C 600.058594 621.675781 598.785156 622.601562 597.492188 623.496094 C 596.195312 624.394531 594.882812 625.261719 593.550781 626.097656 C 592.214844 626.9375 590.863281 627.742188 589.496094 628.523438 C 588.128906 629.300781 586.742188 630.046875 585.339844 630.765625 C 583.9375 631.480469 582.519531 632.167969 581.089844 632.820312 C 579.65625 633.476562 578.210938 634.097656 576.75 634.6875 C 575.292969 635.277344 573.820312 635.835938 572.335938 636.359375 C 570.851562 636.886719 569.355469 637.378906 567.847656 637.835938 C 566.34375 638.296875 564.828125 638.71875 563.300781 639.113281 C 561.777344 639.503906 560.242188 639.863281 558.703125 640.1875 C 557.160156 640.507812 555.613281 640.800781 554.0625 641.054688 C 552.507812 641.308594 550.949219 641.53125 549.386719 641.71875 C 547.820312 641.902344 546.253906 642.054688 544.683594 642.171875 C 441.050781 650.496094 337.417969 650.480469 233.785156 642.125 C 232.214844 641.996094 230.648438 641.835938 229.085938 641.640625 C 227.523438 641.445312 225.96875 641.214844 224.414062 640.949219 C 222.863281 640.683594 221.316406 640.382812 219.78125 640.050781 C 218.242188 639.71875 216.710938 639.351562 215.1875 638.949219 C 213.664062 638.550781 212.152344 638.113281 210.648438 637.648438 C 209.144531 637.179688 207.652344 636.679688 206.171875 636.144531 C 204.691406 635.609375 203.222656 635.042969 201.765625 634.445312 C 200.308594 633.84375 198.867188 633.214844 197.4375 632.550781 C 196.011719 631.890625 194.597656 631.195312 193.199219 630.46875 C 191.800781 629.746094 190.421875 628.988281 189.058594 628.203125 C 187.691406 627.414062 186.347656 626.601562 185.019531 625.753906 C 183.691406 624.90625 182.382812 624.03125 181.09375 623.128906 C 179.804688 622.226562 178.535156 621.292969 177.285156 620.332031 C 176.039062 619.375 174.8125 618.386719 173.609375 617.371094 C 172.402344 616.359375 171.222656 615.316406 170.0625 614.25 C 168.90625 613.183594 167.773438 612.09375 166.660156 610.976562 C 165.550781 609.859375 164.46875 608.71875 163.40625 607.554688 C 162.347656 606.390625 161.316406 605.203125 160.308594 603.992188 C 159.300781 602.78125 158.320312 601.546875 157.367188 600.292969 C 156.414062 599.039062 155.492188 597.765625 154.59375 596.472656 C 153.699219 595.175781 152.832031 593.863281 151.996094 592.53125 C 151.15625 591.195312 150.347656 589.847656 149.570312 588.476562 C 148.792969 587.109375 148.042969 585.722656 147.328125 584.320312 C 146.609375 582.917969 145.925781 581.503906 145.273438 580.070312 C 144.617188 578.636719 143.996094 577.191406 143.40625 575.730469 C 142.816406 574.273438 142.257812 572.800781 141.730469 571.316406 C 141.207031 569.832031 140.714844 568.335938 140.257812 566.828125 C 139.796875 565.324219 139.371094 563.808594 138.980469 562.28125 C 138.589844 560.757812 138.230469 559.222656 137.90625 557.683594 C 137.582031 556.144531 137.292969 554.59375 137.039062 553.042969 C 136.78125 551.488281 136.5625 549.929688 136.375 548.367188 C 136.1875 546.800781 136.035156 545.234375 135.917969 543.664062 C 127.566406 440.03125 127.582031 336.398438 135.96875 232.765625 C 136.097656 231.195312 136.257812 229.628906 136.453125 228.066406 C 136.648438 226.507812 136.878906 224.949219 137.144531 223.398438 C 137.410156 221.84375 137.707031 220.300781 138.042969 218.761719 C 138.375 217.222656 138.742188 215.691406 139.144531 214.167969 C 139.542969 212.644531 139.976562 211.132812 140.445312 209.628906 C 140.914062 208.125 141.414062 206.632812 141.949219 205.152344 C 142.484375 203.671875 143.050781 202.203125 143.648438 200.746094 C 144.246094 199.289062 144.878906 197.847656 145.539062 196.417969 C 146.203125 194.992188 146.898438 193.578125 147.621094 192.179688 C 148.347656 190.78125 149.105469 189.402344 149.890625 188.039062 C 150.675781 186.671875 151.492188 185.328125 152.339844 184 C 153.183594 182.671875 154.058594 181.363281 154.964844 180.074219 C 155.867188 178.785156 156.800781 177.515625 157.757812 176.269531 C 158.71875 175.019531 159.707031 173.792969 160.722656 172.589844 C 161.734375 171.386719 162.777344 170.203125 163.84375 169.046875 C 164.910156 167.886719 166 166.753906 167.117188 165.644531 C 168.234375 164.53125 169.375 163.449219 170.539062 162.386719 C 171.703125 161.328125 172.890625 160.296875 174.101562 159.289062 C 175.3125 158.28125 176.542969 157.300781 177.796875 156.347656 C 179.050781 155.398438 180.328125 154.472656 181.621094 153.578125 C 182.914062 152.679688 184.230469 151.8125 185.5625 150.976562 C 186.894531 150.136719 188.246094 149.328125 189.617188 148.550781 C 190.984375 147.773438 192.371094 147.027344 193.773438 146.308594 C 195.171875 145.59375 196.589844 144.90625 198.023438 144.253906 C 199.457031 143.597656 200.902344 142.976562 202.359375 142.386719 C 203.820312 141.796875 205.292969 141.238281 206.777344 140.714844 C 208.261719 140.1875 209.757812 139.695312 211.261719 139.238281 C 212.769531 138.777344 214.285156 138.351562 215.808594 137.960938 C 217.335938 137.570312 218.867188 137.210938 220.410156 136.886719 C 221.949219 136.5625 223.496094 136.273438 225.050781 136.019531 C 226.605469 135.761719 228.164062 135.542969 229.726562 135.355469 C 231.289062 135.167969 232.855469 135.015625 234.425781 134.902344 C 338.0625 126.546875 441.695312 126.5625 545.328125 134.949219 C 546.894531 135.078125 548.460938 135.238281 550.023438 135.433594 C 551.585938 135.628906 553.144531 135.859375 554.695312 136.125 C 556.25 136.390625 557.792969 136.6875 559.332031 137.023438 C 560.871094 137.355469 562.402344 137.722656 563.925781 138.125 C 565.449219 138.523438 566.960938 138.960938 568.464844 139.425781 C 569.96875 139.894531 571.460938 140.394531 572.941406 140.929688 C 574.421875 141.464844 575.890625 142.03125 577.347656 142.628906 C 578.804688 143.226562 580.246094 143.859375 581.671875 144.523438 C 583.101562 145.183594 584.515625 145.878906 585.914062 146.605469 C 587.308594 147.328125 588.691406 148.085938 590.054688 148.871094 C 591.417969 149.65625 592.765625 150.472656 594.09375 151.320312 C 595.421875 152.164062 596.730469 153.039062 598.019531 153.945312 C 599.308594 154.847656 600.578125 155.78125 601.824219 156.742188 C 603.074219 157.699219 604.300781 158.6875 605.503906 159.703125 C 606.707031 160.714844 607.890625 161.757812 609.046875 162.824219 C 610.207031 163.890625 611.339844 164.980469 612.449219 166.097656 C 613.558594 167.214844 614.644531 168.355469 615.703125 169.519531 C 616.765625 170.683594 617.796875 171.871094 618.804688 173.082031 C 619.8125 174.292969 620.789062 175.527344 621.742188 176.78125 C 622.695312 178.03125 623.621094 179.308594 624.515625 180.601562 C 625.414062 181.898438 626.277344 183.210938 627.117188 184.542969 C 627.957031 185.875 628.761719 187.226562 629.542969 188.597656 C 630.320312 189.964844 631.066406 191.351562 631.785156 192.753906 C 632.5 194.15625 633.1875 195.570312 633.839844 197.003906 C 634.496094 198.4375 635.117188 199.882812 635.707031 201.34375 C 636.296875 202.800781 636.855469 204.273438 637.378906 205.757812 C 637.90625 207.242188 638.394531 208.738281 638.855469 210.246094 C 639.3125 211.75 639.738281 213.265625 640.132812 214.792969 C 640.523438 216.316406 640.878906 217.847656 641.203125 219.390625 C 641.527344 220.929688 641.816406 222.476562 642.074219 224.03125 C 642.328125 225.585938 642.550781 227.144531 642.738281 228.707031 C 642.921875 230.269531 643.074219 231.835938 643.191406 233.40625 C 651.546875 337.042969 651.53125 440.675781 643.140625 544.308594 Z M 567.910156 274.996094 C 567.894531 273.410156 567.824219 271.828125 567.691406 270.25 C 567.5625 268.667969 567.375 267.097656 567.128906 265.53125 C 566.882812 263.964844 566.582031 262.410156 566.222656 260.867188 C 565.863281 259.324219 565.449219 257.792969 564.976562 256.28125 C 564.507812 254.765625 563.980469 253.273438 563.402344 251.796875 C 562.820312 250.324219 562.1875 248.871094 561.503906 247.441406 C 560.816406 246.011719 560.078125 244.609375 559.292969 243.234375 C 558.503906 241.859375 557.664062 240.515625 556.777344 239.203125 C 555.890625 237.890625 554.957031 236.609375 553.976562 235.363281 C 553 234.117188 551.972656 232.910156 550.90625 231.738281 C 549.835938 230.570312 548.726562 229.4375 547.574219 228.347656 C 546.425781 227.257812 545.234375 226.214844 544.007812 225.210938 C 542.78125 224.207031 541.519531 223.25 540.21875 222.339844 C 538.921875 221.429688 537.59375 220.570312 536.234375 219.757812 C 534.875 218.941406 533.484375 218.179688 532.070312 217.46875 C 530.652344 216.757812 529.210938 216.097656 527.75 215.492188 C 526.285156 214.882812 524.800781 214.332031 523.292969 213.835938 C 521.789062 213.335938 520.269531 212.894531 518.730469 212.507812 C 517.195312 212.121094 515.644531 211.789062 514.085938 211.515625 C 512.523438 211.242188 510.953125 211.027344 509.378906 210.867188 C 507.800781 210.707031 506.21875 210.605469 504.636719 210.5625 C 503.050781 210.519531 501.46875 210.535156 499.882812 210.605469 C 498.300781 210.679688 496.722656 210.808594 495.148438 210.996094 C 493.574219 211.183594 492.007812 211.429688 490.453125 211.730469 C 488.898438 212.03125 487.355469 212.390625 485.824219 212.804688 C 484.296875 213.21875 482.78125 213.691406 481.289062 214.214844 C 479.792969 214.742188 478.316406 215.320312 476.863281 215.953125 C 475.410156 216.585938 473.984375 217.273438 472.582031 218.007812 C 471.175781 218.746094 469.804688 219.535156 468.457031 220.371094 C 467.113281 221.210938 465.800781 222.097656 464.519531 223.03125 C 463.238281 223.964844 461.992188 224.941406 460.785156 225.96875 C 459.574219 226.992188 458.40625 228.058594 457.273438 229.171875 L 389.554688 296.882812 L 321.84375 229.167969 C 320.710938 228.058594 319.542969 226.992188 318.332031 225.964844 C 317.121094 224.941406 315.878906 223.960938 314.597656 223.027344 C 313.316406 222.09375 312.003906 221.210938 310.65625 220.371094 C 309.3125 219.535156 307.9375 218.746094 306.535156 218.007812 C 305.132812 217.273438 303.703125 216.585938 302.25 215.953125 C 300.796875 215.320312 299.324219 214.742188 297.828125 214.21875 C 296.332031 213.691406 294.820312 213.222656 293.289062 212.808594 C 291.761719 212.394531 290.21875 212.035156 288.660156 211.734375 C 287.105469 211.429688 285.539062 211.1875 283.964844 211 C 282.394531 210.8125 280.8125 210.679688 279.230469 210.609375 C 277.648438 210.535156 276.0625 210.523438 274.480469 210.566406 C 272.894531 210.609375 271.316406 210.710938 269.738281 210.871094 C 268.160156 211.027344 266.589844 211.246094 265.03125 211.519531 C 263.46875 211.792969 261.921875 212.121094 260.382812 212.511719 C 258.847656 212.898438 257.324219 213.339844 255.820312 213.835938 C 254.316406 214.335938 252.832031 214.886719 251.367188 215.496094 C 249.902344 216.101562 248.460938 216.761719 247.046875 217.472656 C 245.628906 218.183594 244.242188 218.945312 242.882812 219.757812 C 241.519531 220.574219 240.191406 221.433594 238.894531 222.34375 C 237.597656 223.253906 236.335938 224.210938 235.109375 225.214844 C 233.878906 226.21875 232.691406 227.261719 231.539062 228.351562 C 230.386719 229.441406 229.277344 230.570312 228.210938 231.742188 C 227.140625 232.914062 226.117188 234.121094 225.136719 235.367188 C 224.15625 236.613281 223.222656 237.890625 222.335938 239.207031 C 221.449219 240.519531 220.613281 241.863281 219.824219 243.238281 C 219.035156 244.613281 218.296875 246.015625 217.613281 247.445312 C 216.925781 248.871094 216.292969 250.324219 215.714844 251.800781 C 215.132812 253.273438 214.609375 254.769531 214.136719 256.28125 C 213.667969 257.796875 213.25 259.324219 212.890625 260.867188 C 212.53125 262.414062 212.230469 263.96875 211.984375 265.53125 C 211.738281 267.097656 211.550781 268.671875 211.421875 270.25 C 211.292969 271.832031 211.21875 273.414062 211.203125 274.996094 C 211.191406 279.253906 211.597656 283.472656 212.421875 287.648438 C 213.25 291.824219 214.476562 295.878906 216.105469 299.808594 C 217.734375 303.742188 219.734375 307.476562 222.105469 311.011719 C 224.472656 314.546875 227.167969 317.816406 230.1875 320.820312 L 297.902344 388.535156 L 230.1875 456.25 C 229.4375 457 228.707031 457.769531 227.996094 458.554688 C 227.28125 459.339844 226.589844 460.140625 225.917969 460.960938 C 225.242188 461.78125 224.589844 462.617188 223.960938 463.46875 C 223.328125 464.320312 222.71875 465.1875 222.128906 466.070312 C 221.539062 466.953125 220.972656 467.847656 220.425781 468.757812 C 219.878906 469.667969 219.359375 470.589844 218.859375 471.527344 C 218.359375 472.460938 217.882812 473.40625 217.425781 474.367188 C 216.972656 475.324219 216.542969 476.296875 216.136719 477.273438 C 215.734375 478.253906 215.351562 479.242188 214.992188 480.242188 C 214.636719 481.242188 214.304688 482.246094 213.996094 483.261719 C 213.6875 484.277344 213.40625 485.300781 213.148438 486.328125 C 212.890625 487.359375 212.65625 488.390625 212.449219 489.433594 C 212.242188 490.472656 212.0625 491.515625 211.90625 492.566406 C 211.75 493.617188 211.621094 494.667969 211.515625 495.722656 C 211.414062 496.777344 211.335938 497.835938 211.28125 498.894531 C 211.230469 499.953125 211.203125 501.015625 211.203125 502.074219 C 211.203125 503.136719 211.230469 504.195312 211.28125 505.253906 C 211.335938 506.316406 211.414062 507.371094 211.515625 508.429688 C 211.621094 509.484375 211.75 510.535156 211.90625 511.585938 C 212.0625 512.632812 212.242188 513.679688 212.449219 514.71875 C 212.65625 515.757812 212.890625 516.792969 213.148438 517.824219 C 213.402344 518.851562 213.6875 519.875 213.996094 520.886719 C 214.304688 521.902344 214.636719 522.910156 214.992188 523.910156 C 215.351562 524.90625 215.730469 525.898438 216.136719 526.875 C 216.542969 527.855469 216.972656 528.824219 217.425781 529.785156 C 217.878906 530.742188 218.355469 531.691406 218.855469 532.625 C 219.355469 533.5625 219.878906 534.484375 220.425781 535.394531 C 220.96875 536.304688 221.535156 537.199219 222.125 538.082031 C 222.714844 538.964844 223.324219 539.828125 223.957031 540.683594 C 224.589844 541.535156 225.242188 542.371094 225.914062 543.191406 C 226.585938 544.007812 227.28125 544.8125 227.992188 545.597656 C 228.703125 546.382812 229.4375 547.152344 230.183594 547.902344 C 230.933594 548.652344 231.703125 549.382812 232.488281 550.09375 C 233.273438 550.808594 234.078125 551.5 234.898438 552.171875 C 235.71875 552.847656 236.554688 553.5 237.40625 554.128906 C 238.257812 554.761719 239.125 555.371094 240.007812 555.960938 C 240.886719 556.550781 241.785156 557.117188 242.695312 557.664062 C 243.601562 558.210938 244.527344 558.730469 245.460938 559.230469 C 246.398438 559.730469 247.34375 560.207031 248.300781 560.660156 C 249.261719 561.117188 250.230469 561.546875 251.210938 561.953125 C 252.191406 562.355469 253.179688 562.738281 254.179688 563.097656 C 255.175781 563.453125 256.183594 563.785156 257.199219 564.09375 C 258.214844 564.402344 259.234375 564.683594 260.265625 564.941406 C 261.292969 565.199219 262.328125 565.433594 263.367188 565.640625 C 264.40625 565.847656 265.453125 566.027344 266.5 566.183594 C 267.550781 566.339844 268.601562 566.46875 269.660156 566.574219 C 270.714844 566.675781 271.773438 566.753906 272.832031 566.808594 C 273.890625 566.859375 274.949219 566.886719 276.011719 566.886719 C 277.070312 566.886719 278.132812 566.859375 279.191406 566.808594 C 280.25 566.753906 281.308594 566.675781 282.363281 566.574219 C 283.417969 566.46875 284.472656 566.339844 285.519531 566.183594 C 286.570312 566.027344 287.613281 565.847656 288.65625 565.640625 C 289.695312 565.433594 290.730469 565.199219 291.757812 564.941406 C 292.789062 564.683594 293.808594 564.402344 294.824219 564.09375 C 295.839844 563.785156 296.847656 563.453125 297.84375 563.097656 C 298.84375 562.738281 299.832031 562.359375 300.8125 561.953125 C 301.792969 561.546875 302.761719 561.117188 303.71875 560.664062 C 304.679688 560.210938 305.625 559.734375 306.5625 559.234375 C 307.496094 558.734375 308.417969 558.210938 309.328125 557.664062 C 310.238281 557.121094 311.136719 556.554688 312.015625 555.964844 C 312.898438 555.375 313.765625 554.765625 314.617188 554.132812 C 315.46875 553.5 316.304688 552.847656 317.125 552.175781 C 317.945312 551.503906 318.746094 550.808594 319.535156 550.097656 C 320.320312 549.386719 321.085938 548.652344 321.835938 547.90625 L 389.554688 480.191406 L 457.269531 547.90625 C 460.269531 550.925781 463.539062 553.617188 467.078125 555.988281 C 470.613281 558.359375 474.347656 560.359375 478.28125 561.988281 C 482.214844 563.617188 486.269531 564.84375 490.445312 565.667969 C 494.621094 566.496094 498.839844 566.902344 503.097656 566.890625 C 504.683594 566.875 506.265625 566.804688 507.84375 566.671875 C 509.421875 566.542969 510.996094 566.355469 512.5625 566.109375 C 514.128906 565.863281 515.683594 565.5625 517.226562 565.203125 C 518.769531 564.84375 520.300781 564.429688 521.8125 563.957031 C 523.324219 563.488281 524.820312 562.960938 526.296875 562.382812 C 527.769531 561.804688 529.222656 561.171875 530.652344 560.484375 C 532.082031 559.796875 533.480469 559.0625 534.855469 558.273438 C 536.230469 557.484375 537.578125 556.648438 538.890625 555.761719 C 540.203125 554.875 541.484375 553.941406 542.730469 552.960938 C 543.976562 551.980469 545.183594 550.953125 546.351562 549.886719 C 547.523438 548.816406 548.652344 547.707031 549.742188 546.558594 C 550.832031 545.40625 551.878906 544.214844 552.882812 542.988281 C 553.886719 541.761719 554.839844 540.5 555.75 539.203125 C 556.660156 537.902344 557.523438 536.574219 558.335938 535.214844 C 559.148438 533.855469 559.914062 532.464844 560.625 531.050781 C 561.335938 529.632812 561.996094 528.195312 562.601562 526.730469 C 563.207031 525.265625 563.761719 523.78125 564.257812 522.277344 C 564.757812 520.769531 565.199219 519.25 565.585938 517.714844 C 565.972656 516.175781 566.304688 514.625 566.578125 513.066406 C 566.851562 511.503906 567.066406 509.933594 567.226562 508.359375 C 567.386719 506.78125 567.488281 505.199219 567.53125 503.617188 C 567.574219 502.03125 567.558594 500.449219 567.488281 498.863281 C 567.414062 497.28125 567.285156 495.703125 567.097656 494.128906 C 566.910156 492.554688 566.664062 490.992188 566.363281 489.433594 C 566.058594 487.878906 565.703125 486.335938 565.289062 484.804688 C 564.871094 483.277344 564.402344 481.761719 563.878906 480.269531 C 563.351562 478.773438 562.773438 477.296875 562.140625 475.84375 C 561.507812 474.390625 560.820312 472.964844 560.082031 471.5625 C 559.347656 470.160156 558.558594 468.785156 557.722656 467.4375 C 556.882812 466.09375 555.996094 464.78125 555.0625 463.5 C 554.128906 462.21875 553.148438 460.972656 552.125 459.765625 C 551.101562 458.554688 550.035156 457.386719 548.921875 456.253906 L 481.210938 388.535156 L 548.925781 320.824219 C 551.941406 317.820312 554.636719 314.550781 557.007812 311.015625 C 559.378906 307.480469 561.378906 303.746094 563.007812 299.8125 C 564.636719 295.878906 565.863281 291.824219 566.6875 287.644531 C 567.515625 283.46875 567.921875 279.253906 567.910156 274.996094 Z M 527.308594 299.199219 L 448.785156 377.726562 C 448.074219 378.4375 447.441406 379.210938 446.882812 380.042969 C 446.324219 380.878906 445.855469 381.757812 445.46875 382.6875 C 445.085938 383.613281 444.796875 384.570312 444.601562 385.554688 C 444.402344 386.539062 444.304688 387.53125 444.304688 388.535156 C 444.304688 389.539062 444.402344 390.535156 444.601562 391.519531 C 444.796875 392.503906 445.085938 393.460938 445.46875 394.386719 C 445.855469 395.3125 446.324219 396.195312 446.882812 397.03125 C 447.441406 397.863281 448.074219 398.636719 448.785156 399.34375 L 527.308594 477.878906 C 558.398438 510.6875 511.902344 556.761719 478.890625 526.289062 L 400.363281 447.765625 C 399.65625 447.054688 398.882812 446.421875 398.046875 445.863281 C 397.214844 445.304688 396.332031 444.835938 395.40625 444.449219 C 394.476562 444.066406 393.523438 443.777344 392.539062 443.582031 C 391.554688 443.386719 390.558594 443.285156 389.554688 443.285156 C 388.550781 443.285156 387.558594 443.386719 386.574219 443.582031 C 385.589844 443.777344 384.632812 444.066406 383.707031 444.449219 C 382.777344 444.835938 381.898438 445.304688 381.0625 445.863281 C 380.230469 446.421875 379.457031 447.054688 378.746094 447.765625 L 300.214844 526.289062 C 299.421875 527.082031 298.59375 527.832031 297.726562 528.542969 C 296.859375 529.253906 295.957031 529.917969 295.027344 530.542969 C 294.09375 531.164062 293.132812 531.738281 292.144531 532.265625 C 291.15625 532.792969 290.144531 533.273438 289.109375 533.703125 C 288.074219 534.128906 287.019531 534.507812 285.945312 534.832031 C 284.875 535.15625 283.789062 535.429688 282.6875 535.644531 C 281.589844 535.863281 280.480469 536.027344 279.367188 536.136719 C 278.25 536.246094 277.132812 536.300781 276.011719 536.300781 C 274.890625 536.300781 273.773438 536.246094 272.65625 536.136719 C 271.542969 536.027344 270.433594 535.859375 269.335938 535.640625 C 268.234375 535.421875 267.148438 535.152344 266.078125 534.824219 C 265.003906 534.5 263.949219 534.121094 262.914062 533.695312 C 261.878906 533.265625 260.867188 532.785156 259.878906 532.257812 C 258.890625 531.730469 257.929688 531.152344 257 530.53125 C 256.066406 529.90625 255.167969 529.242188 254.300781 528.527344 C 253.4375 527.816406 252.605469 527.066406 251.8125 526.273438 C 251.019531 525.480469 250.269531 524.652344 249.558594 523.785156 C 248.847656 522.917969 248.179688 522.019531 247.558594 521.085938 C 246.933594 520.15625 246.359375 519.195312 245.832031 518.207031 C 245.304688 517.21875 244.824219 516.207031 244.394531 515.171875 C 243.964844 514.136719 243.589844 513.082031 243.261719 512.007812 C 242.9375 510.9375 242.664062 509.851562 242.445312 508.75 C 242.226562 507.652344 242.0625 506.546875 241.953125 505.429688 C 241.84375 504.3125 241.789062 503.195312 241.789062 502.074219 C 241.789062 500.953125 241.84375 499.835938 241.953125 498.722656 C 242.0625 497.605469 242.226562 496.496094 242.445312 495.398438 C 242.664062 494.300781 242.933594 493.214844 243.257812 492.140625 C 243.585938 491.066406 243.960938 490.015625 244.390625 488.976562 C 244.820312 487.941406 245.296875 486.929688 245.824219 485.941406 C 246.351562 484.953125 246.929688 483.992188 247.550781 483.058594 C 248.171875 482.128906 248.839844 481.230469 249.550781 480.363281 C 250.261719 479.496094 251.011719 478.664062 251.804688 477.871094 L 330.328125 399.34375 C 331.035156 398.636719 331.671875 397.863281 332.226562 397.03125 C 332.785156 396.195312 333.257812 395.3125 333.640625 394.386719 C 334.027344 393.460938 334.316406 392.503906 334.511719 391.519531 C 334.707031 390.535156 334.804688 389.539062 334.804688 388.535156 C 334.804688 387.53125 334.707031 386.539062 334.511719 385.554688 C 334.316406 384.570312 334.027344 383.613281 333.640625 382.6875 C 333.257812 381.757812 332.785156 380.878906 332.226562 380.042969 C 331.671875 379.210938 331.035156 378.4375 330.328125 377.726562 L 251.804688 299.195312 C 251.015625 298.398438 250.269531 297.570312 249.5625 296.699219 C 248.855469 295.832031 248.191406 294.929688 247.570312 293.996094 C 246.953125 293.066406 246.382812 292.101562 245.855469 291.113281 C 245.332031 290.125 244.855469 289.113281 244.429688 288.078125 C 244.003906 287.042969 243.628906 285.988281 243.304688 284.914062 C 242.984375 283.84375 242.710938 282.757812 242.496094 281.660156 C 242.277344 280.5625 242.113281 279.453125 242.007812 278.339844 C 241.898438 277.226562 241.84375 276.109375 241.84375 274.988281 C 241.84375 273.867188 241.898438 272.75 242.007812 271.636719 C 242.117188 270.523438 242.28125 269.417969 242.5 268.316406 C 242.714844 267.21875 242.984375 266.132812 243.308594 265.0625 C 243.632812 263.988281 244.007812 262.9375 244.433594 261.902344 C 244.863281 260.867188 245.335938 259.851562 245.863281 258.863281 C 246.386719 257.875 246.960938 256.914062 247.582031 255.980469 C 248.199219 255.046875 248.863281 254.148438 249.570312 253.28125 C 250.277344 252.410156 251.027344 251.582031 251.8125 250.785156 C 252.621094 250.015625 253.460938 249.285156 254.335938 248.597656 C 255.210938 247.90625 256.117188 247.261719 257.054688 246.65625 C 257.988281 246.054688 258.953125 245.496094 259.941406 244.988281 C 260.933594 244.476562 261.945312 244.011719 262.980469 243.597656 C 264.011719 243.183594 265.066406 242.820312 266.132812 242.503906 C 267.203125 242.191406 268.285156 241.925781 269.378906 241.714844 C 270.472656 241.503906 271.574219 241.347656 272.683594 241.242188 C 273.792969 241.132812 274.902344 241.082031 276.015625 241.082031 C 277.128906 241.082031 278.242188 241.132812 279.351562 241.242188 C 280.460938 241.347656 281.5625 241.503906 282.65625 241.714844 C 283.75 241.925781 284.832031 242.191406 285.898438 242.503906 C 286.96875 242.820312 288.019531 243.183594 289.054688 243.597656 C 290.089844 244.011719 291.101562 244.476562 292.089844 244.988281 C 293.082031 245.496094 294.042969 246.054688 294.980469 246.65625 C 295.917969 247.261719 296.824219 247.90625 297.699219 248.597656 C 298.574219 249.285156 299.414062 250.015625 300.21875 250.785156 L 378.746094 329.308594 C 379.457031 330.019531 380.226562 330.652344 381.0625 331.210938 C 381.898438 331.765625 382.777344 332.238281 383.707031 332.621094 C 384.632812 333.007812 385.589844 333.296875 386.574219 333.492188 C 387.558594 333.6875 388.550781 333.785156 389.554688 333.785156 C 390.558594 333.785156 391.554688 333.6875 392.539062 333.492188 C 393.523438 333.296875 394.476562 333.007812 395.40625 332.621094 C 396.332031 332.238281 397.214844 331.765625 398.046875 331.210938 C 398.882812 330.652344 399.65625 330.019531 400.363281 329.308594 L 478.894531 250.785156 C 480.480469 249.191406 482.207031 247.769531 484.074219 246.515625 C 485.941406 245.265625 487.914062 244.207031 489.992188 243.347656 C 492.070312 242.488281 494.210938 241.839844 496.417969 241.402344 C 498.621094 240.96875 500.847656 240.753906 503.097656 240.757812 C 504.773438 240.777344 506.4375 240.917969 508.089844 241.183594 C 509.742188 241.445312 511.371094 241.828125 512.96875 242.328125 C 514.566406 242.828125 516.121094 243.441406 517.628906 244.171875 C 519.136719 244.898438 520.585938 245.730469 521.972656 246.667969 C 523.359375 247.609375 524.671875 248.644531 525.90625 249.773438 C 527.140625 250.902344 528.289062 252.117188 529.347656 253.414062 C 530.40625 254.714844 531.363281 256.082031 532.222656 257.519531 C 533.082031 258.957031 533.832031 260.449219 534.472656 261.996094 C 535.113281 263.542969 535.640625 265.128906 536.050781 266.753906 C 536.457031 268.378906 536.746094 270.023438 536.917969 271.6875 C 537.085938 273.355469 537.132812 275.023438 537.058594 276.695312 C 536.984375 278.371094 536.789062 280.027344 536.472656 281.671875 C 536.15625 283.316406 535.722656 284.929688 535.167969 286.511719 C 534.617188 288.09375 533.953125 289.625 533.175781 291.109375 C 532.398438 292.59375 531.519531 294.015625 530.535156 295.371094 C 529.554688 296.726562 528.476562 298.003906 527.308594 299.199219 Z M 527.308594 299.199219 " clip-rule="nonzero"/></clipPath><linearGradient x1="3.290263" gradientTransform="matrix(10.191636, 0, 0, 10.191636, 63.423534, 62.40444)" y1="32.000999" x2="60.500001" gradientUnits="userSpaceOnUse" y2="32.000999" id="id3"><stop stop-opacity="1" stop-color="rgb(100%, 65.098572%, 55.299377%)" offset="0"/><stop stop-opacity="1" stop-color="rgb(99.996948%, 65.010071%, 55.291748%)" offset="0.0078125"/><stop stop-opacity="1" stop-color="rgb(99.992371%, 64.756775%, 55.270386%)" offset="0.015625"/><stop stop-opacity="1" stop-color="rgb(99.986267%, 64.424133%, 55.24292%)" offset="0.0234375"/><stop stop-opacity="1" stop-color="rgb(99.980164%, 64.091492%, 55.215454%)" offset="0.03125"/><stop stop-opacity="1" stop-color="rgb(99.97406%, 63.760376%, 55.187988%)" offset="0.0390625"/><stop stop-opacity="1" stop-color="rgb(99.967957%, 63.427734%, 55.160522%)" offset="0.046875"/><stop stop-opacity="1" stop-color="rgb(99.961853%, 63.095093%, 55.133057%)" offset="0.0546875"/><stop stop-opacity="1" stop-color="rgb(99.95575%, 62.762451%, 55.105591%)" offset="0.0625"/><stop stop-opacity="1" stop-color="rgb(99.94812%, 62.42981%, 55.078125%)" offset="0.0703125"/><stop stop-opacity="1" stop-color="rgb(99.942017%, 62.097168%, 55.052185%)" offset="0.078125"/><stop stop-opacity="1" stop-color="rgb(99.935913%, 61.764526%, 55.024719%)" offset="0.0859375"/><stop stop-opacity="1" stop-color="rgb(99.92981%, 61.431885%, 54.997253%)" offset="0.09375"/><stop stop-opacity="1" stop-color="rgb(99.923706%, 61.099243%, 54.969788%)" offset="0.101562"/><stop stop-opacity="1" stop-color="rgb(99.917603%, 60.768127%, 54.942322%)" offset="0.109375"/><stop stop-opacity="1" stop-color="rgb(99.911499%, 60.435486%, 54.914856%)" offset="0.117188"/><stop stop-opacity="1" stop-color="rgb(99.905396%, 60.102844%, 54.88739%)" offset="0.125"/><stop stop-opacity="1" stop-color="rgb(99.899292%, 59.770203%, 54.859924%)" offset="0.132812"/><stop stop-opacity="1" stop-color="rgb(99.891663%, 59.437561%, 54.832458%)" offset="0.140625"/><stop stop-opacity="1" stop-color="rgb(99.885559%, 59.104919%, 54.804993%)" offset="0.148437"/><stop stop-opacity="1" stop-color="rgb(99.879456%, 58.772278%, 54.777527%)" offset="0.15625"/><stop stop-opacity="1" stop-color="rgb(99.873352%, 58.439636%, 54.750061%)" offset="0.164062"/><stop stop-opacity="1" stop-color="rgb(99.867249%, 58.106995%, 54.722595%)" offset="0.171875"/><stop stop-opacity="1" stop-color="rgb(99.861145%, 57.775879%, 54.695129%)" offset="0.179687"/><stop stop-opacity="1" stop-color="rgb(99.855042%, 57.443237%, 54.667664%)" offset="0.1875"/><stop stop-opacity="1" stop-color="rgb(99.848938%, 57.110596%, 54.640198%)" offset="0.195312"/><stop stop-opacity="1" stop-color="rgb(99.842834%, 56.777954%, 54.612732%)" offset="0.203125"/><stop stop-opacity="1" stop-color="rgb(99.835205%, 56.445312%, 54.585266%)" offset="0.210937"/><stop stop-opacity="1" stop-color="rgb(99.829102%, 56.112671%, 54.5578%)" offset="0.21875"/><stop stop-opacity="1" stop-color="rgb(99.822998%, 55.780029%, 54.530334%)" offset="0.226562"/><stop stop-opacity="1" stop-color="rgb(99.816895%, 55.447388%, 54.502869%)" offset="0.234375"/><stop stop-opacity="1" stop-color="rgb(99.810791%, 55.114746%, 54.475403%)" offset="0.242187"/><stop stop-opacity="1" stop-color="rgb(99.804688%, 54.78363%, 54.447937%)" offset="0.25"/><stop stop-opacity="1" stop-color="rgb(99.798584%, 54.450989%, 54.420471%)" offset="0.257812"/><stop stop-opacity="1" stop-color="rgb(99.79248%, 54.118347%, 54.393005%)" offset="0.265625"/><stop stop-opacity="1" stop-color="rgb(99.786377%, 53.785706%, 54.36554%)" offset="0.273438"/><stop stop-opacity="1" stop-color="rgb(99.778748%, 53.453064%, 54.338074%)" offset="0.28125"/><stop stop-opacity="1" stop-color="rgb(99.772644%, 53.120422%, 54.310608%)" offset="0.289062"/><stop stop-opacity="1" stop-color="rgb(99.766541%, 52.787781%, 54.283142%)" offset="0.296875"/><stop stop-opacity="1" stop-color="rgb(99.760437%, 52.455139%, 54.255676%)" offset="0.304688"/><stop stop-opacity="1" stop-color="rgb(99.754333%, 52.122498%, 54.22821%)" offset="0.3125"/><stop stop-opacity="1" stop-color="rgb(99.74823%, 51.791382%, 54.200745%)" offset="0.320312"/><stop stop-opacity="1" stop-color="rgb(99.742126%, 51.45874%, 54.173279%)" offset="0.328125"/><stop stop-opacity="1" stop-color="rgb(99.736023%, 51.126099%, 54.145813%)" offset="0.335938"/><stop stop-opacity="1" stop-color="rgb(99.729919%, 50.793457%, 54.118347%)" offset="0.34375"/><stop stop-opacity="1" stop-color="rgb(99.72229%, 50.460815%, 54.090881%)" offset="0.351562"/><stop stop-opacity="1" stop-color="rgb(99.716187%, 50.128174%, 54.063416%)" offset="0.359375"/><stop stop-opacity="1" stop-color="rgb(99.710083%, 49.795532%, 54.03595%)" offset="0.367188"/><stop stop-opacity="1" stop-color="rgb(99.703979%, 49.462891%, 54.008484%)" offset="0.375"/><stop stop-opacity="1" stop-color="rgb(99.697876%, 49.130249%, 53.981018%)" offset="0.382812"/><stop stop-opacity="1" stop-color="rgb(99.691772%, 48.799133%, 53.953552%)" offset="0.390625"/><stop stop-opacity="1" stop-color="rgb(99.685669%, 48.466492%, 53.926086%)" offset="0.398438"/><stop stop-opacity="1" stop-color="rgb(99.679565%, 48.13385%, 53.898621%)" offset="0.40625"/><stop stop-opacity="1" stop-color="rgb(99.673462%, 47.801208%, 53.871155%)" offset="0.414062"/><stop stop-opacity="1" stop-color="rgb(99.665833%, 47.468567%, 53.843689%)" offset="0.421875"/><stop stop-opacity="1" stop-color="rgb(99.659729%, 47.135925%, 53.816223%)" offset="0.429688"/><stop stop-opacity="1" stop-color="rgb(99.653625%, 46.803284%, 53.788757%)" offset="0.4375"/><stop stop-opacity="1" stop-color="rgb(99.647522%, 46.470642%, 53.761292%)" offset="0.445312"/><stop stop-opacity="1" stop-color="rgb(99.641418%, 46.138%, 53.733826%)" offset="0.453125"/><stop stop-opacity="1" stop-color="rgb(99.635315%, 45.806885%, 53.70636%)" offset="0.460938"/><stop stop-opacity="1" stop-color="rgb(99.629211%, 45.474243%, 53.678894%)" offset="0.46875"/><stop stop-opacity="1" stop-color="rgb(99.623108%, 45.141602%, 53.651428%)" offset="0.476562"/><stop stop-opacity="1" stop-color="rgb(99.617004%, 44.80896%, 53.623962%)" offset="0.484375"/><stop stop-opacity="1" stop-color="rgb(99.609375%, 44.476318%, 53.596497%)" offset="0.492188"/><stop stop-opacity="1" stop-color="rgb(99.603271%, 44.143677%, 53.569031%)" offset="0.5"/><stop stop-opacity="1" stop-color="rgb(99.597168%, 43.811035%, 53.541565%)" offset="0.507812"/><stop stop-opacity="1" stop-color="rgb(99.591064%, 43.478394%, 53.514099%)" offset="0.515625"/><stop stop-opacity="1" stop-color="rgb(99.584961%, 43.145752%, 53.486633%)" offset="0.523438"/><stop stop-opacity="1" stop-color="rgb(99.578857%, 42.81311%, 53.459167%)" offset="0.53125"/><stop stop-opacity="1" stop-color="rgb(99.572754%, 42.481995%, 53.431702%)" offset="0.539062"/><stop stop-opacity="1" stop-color="rgb(99.56665%, 42.149353%, 53.404236%)" offset="0.546875"/><stop stop-opacity="1" stop-color="rgb(99.560547%, 41.816711%, 53.37677%)" offset="0.554688"/><stop stop-opacity="1" stop-color="rgb(99.552917%, 41.48407%, 53.349304%)" offset="0.5625"/><stop stop-opacity="1" stop-color="rgb(99.546814%, 41.151428%, 53.321838%)" offset="0.570312"/><stop stop-opacity="1" stop-color="rgb(99.54071%, 40.818787%, 53.294373%)" offset="0.578125"/><stop stop-opacity="1" stop-color="rgb(99.534607%, 40.486145%, 53.266907%)" offset="0.585938"/><stop stop-opacity="1" stop-color="rgb(99.528503%, 40.153503%, 53.239441%)" offset="0.59375"/><stop stop-opacity="1" stop-color="rgb(99.5224%, 39.820862%, 53.211975%)" offset="0.601562"/><stop stop-opacity="1" stop-color="rgb(99.516296%, 39.489746%, 53.184509%)" offset="0.609375"/><stop stop-opacity="1" stop-color="rgb(99.510193%, 39.157104%, 53.157043%)" offset="0.617188"/><stop stop-opacity="1" stop-color="rgb(99.504089%, 38.824463%, 53.129578%)" offset="0.625"/><stop stop-opacity="1" stop-color="rgb(99.49646%, 38.491821%, 53.102112%)" offset="0.632812"/><stop stop-opacity="1" stop-color="rgb(99.490356%, 38.15918%, 53.076172%)" offset="0.640625"/><stop stop-opacity="1" stop-color="rgb(99.484253%, 37.826538%, 53.048706%)" offset="0.648437"/><stop stop-opacity="1" stop-color="rgb(99.478149%, 37.493896%, 53.02124%)" offset="0.65625"/><stop stop-opacity="1" stop-color="rgb(99.472046%, 37.161255%, 52.993774%)" offset="0.664062"/><stop stop-opacity="1" stop-color="rgb(99.465942%, 36.828613%, 52.966309%)" offset="0.671875"/><stop stop-opacity="1" stop-color="rgb(99.459839%, 36.497498%, 52.938843%)" offset="0.679687"/><stop stop-opacity="1" stop-color="rgb(99.453735%, 36.164856%, 52.911377%)" offset="0.6875"/><stop stop-opacity="1" stop-color="rgb(99.447632%, 35.832214%, 52.883911%)" offset="0.695312"/><stop stop-opacity="1" stop-color="rgb(99.440002%, 35.499573%, 52.856445%)" offset="0.703125"/><stop stop-opacity="1" stop-color="rgb(99.433899%, 35.166931%, 52.828979%)" offset="0.710937"/><stop stop-opacity="1" stop-color="rgb(99.427795%, 34.83429%, 52.801514%)" offset="0.71875"/><stop stop-opacity="1" stop-color="rgb(99.421692%, 34.501648%, 52.774048%)" offset="0.726562"/><stop stop-opacity="1" stop-color="rgb(99.415588%, 34.169006%, 52.746582%)" offset="0.734375"/><stop stop-opacity="1" stop-color="rgb(99.409485%, 33.836365%, 52.719116%)" offset="0.742187"/><stop stop-opacity="1" stop-color="rgb(99.403381%, 33.505249%, 52.69165%)" offset="0.75"/><stop stop-opacity="1" stop-color="rgb(99.397278%, 33.172607%, 52.664185%)" offset="0.757812"/><stop stop-opacity="1" stop-color="rgb(99.391174%, 32.839966%, 52.636719%)" offset="0.765625"/><stop stop-opacity="1" stop-color="rgb(99.383545%, 32.507324%, 52.609253%)" offset="0.773437"/><stop stop-opacity="1" stop-color="rgb(99.377441%, 32.174683%, 52.581787%)" offset="0.78125"/><stop stop-opacity="1" stop-color="rgb(99.371338%, 31.842041%, 52.554321%)" offset="0.789062"/><stop stop-opacity="1" stop-color="rgb(99.365234%, 31.509399%, 52.526855%)" offset="0.796875"/><stop stop-opacity="1" stop-color="rgb(99.359131%, 31.176758%, 52.49939%)" offset="0.804687"/><stop stop-opacity="1" stop-color="rgb(99.353027%, 30.844116%, 52.471924%)" offset="0.8125"/><stop stop-opacity="1" stop-color="rgb(99.346924%, 30.513%, 52.444458%)" offset="0.820312"/><stop stop-opacity="1" stop-color="rgb(99.34082%, 30.180359%, 52.416992%)" offset="0.828125"/><stop stop-opacity="1" stop-color="rgb(99.334717%, 29.847717%, 52.389526%)" offset="0.835937"/><stop stop-opacity="1" stop-color="rgb(99.327087%, 29.515076%, 52.362061%)" offset="0.84375"/><stop stop-opacity="1" stop-color="rgb(99.320984%, 29.182434%, 52.334595%)" offset="0.851562"/><stop stop-opacity="1" stop-color="rgb(99.31488%, 28.849792%, 52.307129%)" offset="0.859375"/><stop stop-opacity="1" stop-color="rgb(99.308777%, 28.517151%, 52.279663%)" offset="0.867188"/><stop stop-opacity="1" stop-color="rgb(99.302673%, 28.184509%, 52.252197%)" offset="0.875"/><stop stop-opacity="1" stop-color="rgb(99.29657%, 27.851868%, 52.224731%)" offset="0.882812"/><stop stop-opacity="1" stop-color="rgb(99.290466%, 27.520752%, 52.197266%)" offset="0.890625"/><stop stop-opacity="1" stop-color="rgb(99.284363%, 27.18811%, 52.1698%)" offset="0.898437"/><stop stop-opacity="1" stop-color="rgb(99.278259%, 26.855469%, 52.142334%)" offset="0.90625"/><stop stop-opacity="1" stop-color="rgb(99.27063%, 26.522827%, 52.114868%)" offset="0.914062"/><stop stop-opacity="1" stop-color="rgb(99.264526%, 26.190186%, 52.087402%)" offset="0.921875"/><stop stop-opacity="1" stop-color="rgb(99.258423%, 25.857544%, 52.059937%)" offset="0.929687"/><stop stop-opacity="1" stop-color="rgb(99.252319%, 25.524902%, 52.032471%)" offset="0.9375"/><stop stop-opacity="1" stop-color="rgb(99.246216%, 25.192261%, 52.005005%)" offset="0.945312"/><stop stop-opacity="1" stop-color="rgb(99.240112%, 24.859619%, 51.977539%)" offset="0.953125"/><stop stop-opacity="1" stop-color="rgb(99.234009%, 24.528503%, 51.950073%)" offset="0.960937"/><stop stop-opacity="1" stop-color="rgb(99.227905%, 24.195862%, 51.922607%)" offset="0.96875"/><stop stop-opacity="1" stop-color="rgb(99.221802%, 23.86322%, 51.895142%)" offset="0.976562"/><stop stop-opacity="1" stop-color="rgb(99.214172%, 23.530579%, 51.867676%)" offset="0.984375"/><stop stop-opacity="1" stop-color="rgb(99.208069%, 23.197937%, 51.84021%)" offset="0.992187"/><stop stop-opacity="1" stop-color="rgb(99.201965%, 22.865295%, 51.812744%)" offset="1"/></linearGradient></defs><g clip-path="url(#id1)"><g clip-path="url(#id2)"><path fill="url(#id3)" d="M 96.957031 96.035156 L 96.957031 681.035156 L 680.015625 681.035156 L 680.015625 96.035156 Z M 96.957031 96.035156 " fill-rule="nonzero"/></g></g></svg>