<svg xmlns="http://www.w3.org/2000/svg" xmlns:xlink="http://www.w3.org/1999/xlink" width="1024" zoomAndPan="magnify" viewBox="0 0 768 767.999994" height="1024" preserveAspectRatio="xMidYMid meet" version="1.0"><defs><clipPath id="id1"><path d="M 135.476562 108 L 679.226562 108 L 679.226562 652 L 135.476562 652 Z M 135.476562 108 " clip-rule="nonzero"/></clipPath><clipPath id="id2"><path d="M 407.351562 108.710938 C 402.90625 108.714844 398.460938 108.828125 394.015625 109.050781 C 389.574219 109.273438 385.140625 109.605469 380.714844 110.046875 C 376.289062 110.488281 371.875 111.035156 367.476562 111.695312 C 363.078125 112.351562 358.695312 113.113281 354.335938 113.988281 C 349.972656 114.859375 345.632812 115.835938 341.320312 116.921875 C 337.007812 118.003906 332.722656 119.195312 328.464844 120.488281 C 324.210938 121.785156 319.988281 123.183594 315.800781 124.683594 C 311.613281 126.1875 307.46875 127.789062 303.359375 129.496094 C 299.25 131.199219 295.1875 133.003906 291.164062 134.910156 C 287.144531 136.8125 283.175781 138.816406 279.253906 140.914062 C 275.332031 143.015625 271.460938 145.207031 267.648438 147.496094 C 263.835938 149.785156 260.078125 152.167969 256.378906 154.640625 C 252.683594 157.113281 249.046875 159.675781 245.476562 162.328125 C 241.902344 164.976562 238.398438 167.714844 234.960938 170.539062 C 231.523438 173.363281 228.15625 176.269531 224.859375 179.257812 C 221.5625 182.246094 218.34375 185.3125 215.199219 188.457031 C 212.054688 191.605469 208.988281 194.828125 206 198.125 C 203.011719 201.421875 200.109375 204.789062 197.285156 208.226562 C 194.460938 211.667969 191.726562 215.171875 189.074219 218.746094 C 186.425781 222.320312 183.863281 225.957031 181.390625 229.65625 C 178.917969 233.355469 176.539062 237.113281 174.25 240.925781 C 171.964844 244.742188 169.769531 248.613281 167.671875 252.535156 C 165.574219 256.460938 163.570312 260.433594 161.667969 264.453125 C 159.765625 268.476562 157.960938 272.539062 156.253906 276.652344 C 154.550781 280.761719 152.949219 284.910156 151.445312 289.097656 C 149.945312 293.285156 148.546875 297.507812 147.253906 301.765625 C 145.960938 306.023438 144.769531 310.308594 143.6875 314.625 C 142.601562 318.941406 141.625 323.28125 140.753906 327.644531 C 139.882812 332.007812 139.117188 336.390625 138.460938 340.789062 C 137.804688 345.191406 137.253906 349.605469 136.816406 354.035156 C 136.375 358.460938 136.042969 362.898438 135.820312 367.339844 C 135.597656 371.785156 135.484375 376.230469 135.476562 380.683594 C 150.414062 741.488281 664.347656 741.382812 679.226562 380.679688 C 679.222656 376.230469 679.109375 371.785156 678.886719 367.339844 C 678.664062 362.894531 678.332031 358.460938 677.890625 354.03125 C 677.449219 349.605469 676.902344 345.191406 676.246094 340.789062 C 675.589844 336.386719 674.824219 332.003906 673.953125 327.640625 C 673.082031 323.277344 672.101562 318.941406 671.019531 314.625 C 669.933594 310.308594 668.746094 306.023438 667.453125 301.765625 C 666.15625 297.507812 664.757812 293.285156 663.257812 289.097656 C 661.757812 284.910156 660.15625 280.757812 658.449219 276.648438 C 656.746094 272.539062 654.941406 268.472656 653.039062 264.453125 C 651.132812 260.429688 649.132812 256.457031 647.035156 252.535156 C 644.933594 248.613281 642.742188 244.742188 640.453125 240.925781 C 638.164062 237.109375 635.785156 233.351562 633.3125 229.652344 C 630.839844 225.957031 628.28125 222.320312 625.628906 218.746094 C 622.980469 215.171875 620.242188 211.664062 617.421875 208.226562 C 614.597656 204.789062 611.691406 201.417969 608.707031 198.121094 C 605.71875 194.824219 602.652344 191.605469 599.507812 188.457031 C 596.363281 185.3125 593.140625 182.246094 589.84375 179.257812 C 586.550781 176.265625 583.183594 173.363281 579.746094 170.539062 C 576.308594 167.714844 572.800781 164.976562 569.230469 162.328125 C 565.65625 159.675781 562.023438 157.113281 558.324219 154.640625 C 554.628906 152.167969 550.871094 149.785156 547.058594 147.496094 C 543.242188 145.207031 539.375 143.011719 535.453125 140.914062 C 531.53125 138.816406 527.558594 136.8125 523.539062 134.910156 C 519.519531 133.003906 515.453125 131.199219 511.347656 129.496094 C 507.238281 127.789062 503.089844 126.1875 498.902344 124.683594 C 494.714844 123.183594 490.496094 121.785156 486.238281 120.488281 C 481.984375 119.195312 477.699219 118.003906 473.386719 116.921875 C 469.070312 115.835938 464.734375 114.859375 460.371094 113.988281 C 456.007812 113.113281 451.628906 112.351562 447.230469 111.695312 C 442.832031 111.035156 438.417969 110.488281 433.992188 110.046875 C 429.566406 109.605469 425.132812 109.273438 420.6875 109.050781 C 416.246094 108.828125 411.800781 108.714844 407.351562 108.710938 Z M 407.351562 624.023438 C 403.371094 624.019531 399.394531 623.917969 395.421875 623.71875 C 391.445312 623.519531 387.476562 623.222656 383.519531 622.828125 C 379.558594 622.433594 375.609375 621.941406 371.671875 621.355469 C 367.738281 620.765625 363.816406 620.082031 359.914062 619.304688 C 356.011719 618.523438 352.132812 617.648438 348.269531 616.679688 C 344.410156 615.707031 340.578125 614.644531 336.769531 613.484375 C 332.960938 612.324219 329.1875 611.074219 325.4375 609.730469 C 321.691406 608.386719 317.980469 606.953125 314.304688 605.425781 C 310.628906 603.902344 306.992188 602.285156 303.394531 600.582031 C 299.800781 598.878906 296.246094 597.089844 292.738281 595.210938 C 289.226562 593.332031 285.765625 591.367188 282.355469 589.320312 C 278.941406 587.273438 275.582031 585.140625 272.273438 582.929688 C 268.964844 580.714844 265.710938 578.421875 262.515625 576.050781 C 259.320312 573.679688 256.183594 571.230469 253.105469 568.703125 C 250.03125 566.175781 247.019531 563.578125 244.070312 560.902344 C 241.121094 558.230469 238.238281 555.484375 235.425781 552.671875 C 232.613281 549.855469 229.867188 546.972656 227.195312 544.023438 C 224.523438 541.074219 221.921875 538.058594 219.398438 534.984375 C 216.871094 531.90625 214.425781 528.769531 212.054688 525.570312 C 209.679688 522.375 207.390625 519.121094 205.175781 515.808594 C 202.964844 512.5 200.835938 509.140625 198.789062 505.726562 C 196.742188 502.3125 194.777344 498.847656 192.902344 495.339844 C 191.023438 491.828125 189.234375 488.273438 187.53125 484.675781 C 185.828125 481.078125 184.210938 477.441406 182.6875 473.761719 C 181.164062 470.085938 179.726562 466.371094 178.386719 462.625 C 177.042969 458.875 175.792969 455.097656 174.632812 451.289062 C 173.476562 447.480469 172.410156 443.644531 171.441406 439.785156 C 170.472656 435.921875 169.597656 432.039062 168.816406 428.136719 C 168.035156 424.230469 167.351562 420.3125 166.765625 416.375 C 166.175781 412.4375 165.6875 408.488281 165.292969 404.523438 C 164.898438 400.5625 164.601562 396.59375 164.402344 392.617188 C 164.203125 388.640625 164.101562 384.664062 164.097656 380.683594 C 177.460938 57.855469 637.292969 57.949219 650.609375 380.683594 C 650.605469 384.664062 650.503906 388.644531 650.304688 392.621094 C 650.105469 396.597656 649.808594 400.566406 649.414062 404.527344 C 649.019531 408.488281 648.527344 412.4375 647.941406 416.375 C 647.351562 420.3125 646.667969 424.234375 645.890625 428.136719 C 645.109375 432.042969 644.234375 435.925781 643.265625 439.785156 C 642.292969 443.648438 641.230469 447.480469 640.074219 451.289062 C 638.914062 455.101562 637.664062 458.878906 636.320312 462.625 C 634.976562 466.375 633.542969 470.085938 632.019531 473.761719 C 630.492188 477.441406 628.878906 481.078125 627.175781 484.675781 C 625.472656 488.273438 623.679688 491.828125 621.804688 495.339844 C 619.925781 498.847656 617.964844 502.3125 615.917969 505.726562 C 613.871094 509.140625 611.738281 512.5 609.527344 515.8125 C 607.316406 519.121094 605.023438 522.375 602.652344 525.570312 C 600.28125 528.769531 597.832031 531.90625 595.308594 534.984375 C 592.78125 538.058594 590.183594 541.074219 587.511719 544.023438 C 584.835938 546.972656 582.09375 549.855469 579.28125 552.671875 C 576.464844 555.484375 573.582031 558.230469 570.636719 560.90625 C 567.6875 563.578125 564.675781 566.179688 561.597656 568.703125 C 558.523438 571.230469 555.386719 573.679688 552.191406 576.050781 C 548.992188 578.425781 545.742188 580.714844 542.433594 582.929688 C 539.125 585.140625 535.765625 587.273438 532.351562 589.320312 C 528.9375 591.367188 525.476562 593.332031 521.96875 595.210938 C 518.457031 597.089844 514.90625 598.878906 511.308594 600.582031 C 507.710938 602.289062 504.074219 603.902344 500.398438 605.425781 C 496.722656 606.953125 493.011719 608.386719 489.265625 609.730469 C 485.519531 611.074219 481.742188 612.328125 477.933594 613.484375 C 474.128906 614.644531 470.292969 615.707031 466.433594 616.679688 C 462.574219 617.648438 458.691406 618.523438 454.789062 619.304688 C 450.886719 620.082031 446.96875 620.765625 443.03125 621.355469 C 439.097656 621.941406 435.148438 622.433594 431.1875 622.828125 C 427.226562 623.222656 423.257812 623.519531 419.285156 623.71875 C 415.308594 623.917969 411.332031 624.019531 407.351562 624.023438 Z M 558.382812 335.867188 L 432.03125 251.601562 C 430.214844 250.390625 428.316406 249.320312 426.339844 248.386719 C 424.367188 247.457031 422.332031 246.675781 420.242188 246.042969 C 418.152344 245.410156 416.027344 244.933594 413.867188 244.613281 C 411.707031 244.292969 409.535156 244.132812 407.351562 244.132812 C 405.167969 244.132812 402.996094 244.292969 400.835938 244.613281 C 398.675781 244.933594 396.550781 245.410156 394.460938 246.042969 C 392.371094 246.675781 390.339844 247.457031 388.363281 248.386719 C 386.390625 249.320312 384.492188 250.390625 382.675781 251.601562 L 256.324219 335.867188 C 255.554688 336.394531 254.847656 336.988281 254.195312 337.65625 C 253.542969 338.320312 252.964844 339.042969 252.453125 339.824219 C 251.941406 340.601562 251.511719 341.425781 251.164062 342.289062 C 250.8125 343.152344 250.550781 344.039062 250.375 344.957031 C 250.199219 345.871094 250.113281 346.792969 250.117188 347.726562 C 250.121094 348.65625 250.214844 349.578125 250.398438 350.492188 C 250.582031 351.40625 250.851562 352.292969 251.207031 353.152344 C 251.566406 354.015625 252.003906 354.832031 252.519531 355.605469 C 253.035156 356.382812 253.621094 357.101562 254.277344 357.761719 C 254.9375 358.421875 255.648438 359.011719 256.421875 359.53125 C 257.195312 360.054688 258.007812 360.496094 258.867188 360.855469 C 259.726562 361.21875 260.609375 361.496094 261.523438 361.683594 C 262.433594 361.871094 263.355469 361.972656 264.289062 361.980469 C 265.21875 361.988281 266.140625 361.910156 267.058594 361.738281 C 267.972656 361.566406 268.863281 361.308594 269.726562 360.960938 C 270.59375 360.617188 271.417969 360.191406 272.199219 359.683594 L 283.339844 352.253906 L 283.339844 464.675781 C 283.339844 466.394531 283.429688 468.109375 283.597656 469.820312 C 283.769531 471.527344 284.023438 473.226562 284.359375 474.910156 C 284.695312 476.597656 285.113281 478.261719 285.613281 479.90625 C 286.113281 481.550781 286.691406 483.164062 287.351562 484.75 C 288.007812 486.339844 288.742188 487.890625 289.554688 489.40625 C 290.363281 490.921875 291.246094 492.390625 292.199219 493.820312 C 293.15625 495.25 294.179688 496.628906 295.269531 497.957031 C 296.359375 499.285156 297.511719 500.554688 298.726562 501.769531 C 299.941406 502.984375 301.210938 504.136719 302.539062 505.230469 C 303.867188 506.320312 305.246094 507.34375 306.671875 508.296875 C 308.101562 509.253906 309.570312 510.136719 311.085938 510.945312 C 312.601562 511.757812 314.152344 512.492188 315.738281 513.148438 C 317.324219 513.808594 318.941406 514.386719 320.582031 514.886719 C 322.226562 515.386719 323.890625 515.804688 325.574219 516.144531 C 327.261719 516.480469 328.957031 516.734375 330.667969 516.902344 C 332.375 517.074219 334.089844 517.160156 335.808594 517.160156 C 359.476562 517.160156 478.707031 517.164062 478.898438 517.160156 C 480.617188 517.160156 482.332031 517.074219 484.039062 516.902344 C 485.75 516.734375 487.445312 516.480469 489.128906 516.144531 C 490.816406 515.804688 492.480469 515.386719 494.121094 514.886719 C 495.765625 514.386719 497.382812 513.808594 498.96875 513.148438 C 500.554688 512.492188 502.105469 511.757812 503.621094 510.945312 C 505.132812 510.136719 506.605469 509.253906 508.035156 508.296875 C 509.460938 507.34375 510.839844 506.320312 512.167969 505.230469 C 513.496094 504.136719 514.765625 502.984375 515.980469 501.769531 C 517.195312 500.554688 518.347656 499.285156 519.4375 497.957031 C 520.527344 496.628906 521.550781 495.25 522.503906 493.820312 C 523.460938 492.390625 524.34375 490.921875 525.152344 489.40625 C 525.960938 487.890625 526.695312 486.339844 527.355469 484.75 C 528.015625 483.164062 528.59375 481.550781 529.09375 479.90625 C 529.59375 478.261719 530.011719 476.597656 530.347656 474.910156 C 530.683594 473.226562 530.9375 471.527344 531.109375 469.820312 C 531.277344 468.109375 531.363281 466.394531 531.367188 464.675781 L 531.367188 352.253906 C 535.75 354.902344 544.886719 362.730469 550.429688 362.089844 C 551.1875 362.074219 551.9375 362.003906 552.679688 361.871094 C 553.425781 361.738281 554.152344 361.546875 554.867188 361.300781 C 555.582031 361.050781 556.273438 360.75 556.941406 360.394531 C 557.605469 360.039062 558.242188 359.632812 558.84375 359.175781 C 559.445312 358.71875 560.011719 358.21875 560.535156 357.675781 C 561.058594 357.128906 561.535156 356.546875 561.96875 355.925781 C 562.402344 355.304688 562.78125 354.65625 563.113281 353.976562 C 563.441406 353.296875 563.71875 352.59375 563.9375 351.871094 C 564.15625 351.144531 564.316406 350.410156 564.421875 349.660156 C 564.523438 348.910156 564.570312 348.160156 564.554688 347.402344 C 564.539062 346.648438 564.464844 345.898438 564.332031 345.152344 C 564.199219 344.40625 564.007812 343.679688 563.757812 342.964844 C 563.511719 342.25 563.210938 341.558594 562.851562 340.894531 C 562.496094 340.226562 562.089844 339.589844 561.632812 338.988281 C 561.175781 338.386719 560.675781 337.824219 560.128906 337.300781 C 559.585938 336.773438 559.003906 336.296875 558.382812 335.867188 Z M 425.285156 488.53125 L 389.417969 488.53125 L 389.417969 449.402344 C 389.417969 448.8125 389.449219 448.226562 389.507812 447.644531 C 389.5625 447.058594 389.648438 446.476562 389.765625 445.902344 C 389.878906 445.324219 390.019531 444.757812 390.191406 444.195312 C 390.363281 443.632812 390.558594 443.078125 390.785156 442.535156 C 391.007812 441.992188 391.261719 441.464844 391.539062 440.945312 C 391.8125 440.425781 392.117188 439.921875 392.441406 439.433594 C 392.769531 438.945312 393.117188 438.476562 393.492188 438.019531 C 393.863281 437.566406 394.257812 437.132812 394.671875 436.714844 C 395.085938 436.300781 395.523438 435.90625 395.976562 435.535156 C 396.429688 435.160156 396.902344 434.8125 397.390625 434.484375 C 397.878906 434.160156 398.382812 433.855469 398.898438 433.582031 C 399.417969 433.304688 399.949219 433.050781 400.488281 432.828125 C 401.03125 432.601562 401.585938 432.40625 402.148438 432.234375 C 402.710938 432.0625 403.277344 431.921875 403.855469 431.808594 C 404.429688 431.691406 405.011719 431.605469 405.59375 431.546875 C 406.179688 431.492188 406.765625 431.460938 407.351562 431.460938 C 407.941406 431.460938 408.527344 431.492188 409.109375 431.546875 C 409.695312 431.605469 410.273438 431.691406 410.851562 431.808594 C 411.425781 431.921875 411.996094 432.0625 412.558594 432.234375 C 413.121094 432.40625 413.671875 432.601562 414.214844 432.828125 C 414.757812 433.050781 415.289062 433.304688 415.804688 433.582031 C 416.324219 433.855469 416.828125 434.160156 417.316406 434.484375 C 417.804688 434.8125 418.277344 435.160156 418.730469 435.535156 C 419.183594 435.90625 419.617188 436.300781 420.035156 436.714844 C 420.449219 437.132812 420.84375 437.566406 421.214844 438.019531 C 421.585938 438.476562 421.9375 438.945312 422.261719 439.433594 C 422.589844 439.921875 422.890625 440.425781 423.167969 440.945312 C 423.445312 441.464844 423.695312 441.992188 423.921875 442.535156 C 424.144531 443.078125 424.34375 443.632812 424.515625 444.195312 C 424.683594 444.757812 424.828125 445.324219 424.941406 445.902344 C 425.054688 446.476562 425.140625 447.058594 425.199219 447.644531 C 425.257812 448.226562 425.285156 448.8125 425.285156 449.402344 Z M 502.746094 464.675781 C 502.746094 465.457031 502.707031 466.234375 502.628906 467.011719 C 502.554688 467.789062 502.4375 468.5625 502.285156 469.328125 C 502.132812 470.09375 501.941406 470.851562 501.714844 471.597656 C 501.488281 472.347656 501.226562 473.082031 500.925781 473.800781 C 500.625 474.523438 500.292969 475.226562 499.925781 475.917969 C 499.554688 476.605469 499.15625 477.273438 498.71875 477.925781 C 498.285156 478.574219 497.820312 479.199219 497.328125 479.804688 C 496.832031 480.40625 496.308594 480.984375 495.753906 481.539062 C 495.203125 482.089844 494.625 482.613281 494.023438 483.109375 C 493.417969 483.605469 492.792969 484.070312 492.144531 484.503906 C 491.492188 484.9375 490.824219 485.339844 490.136719 485.707031 C 489.449219 486.078125 488.742188 486.410156 488.023438 486.710938 C 487.300781 487.007812 486.566406 487.273438 485.820312 487.5 C 485.070312 487.726562 484.316406 487.917969 483.550781 488.070312 C 482.785156 488.222656 482.011719 488.339844 481.234375 488.414062 C 480.457031 488.492188 479.679688 488.53125 478.898438 488.53125 L 453.90625 488.53125 L 453.90625 449.402344 C 451.933594 387.832031 362.742188 387.898438 360.800781 449.402344 L 360.800781 488.53125 L 335.808594 488.53125 C 335.027344 488.53125 334.246094 488.492188 333.46875 488.414062 C 332.691406 488.339844 331.921875 488.222656 331.15625 488.070312 C 330.390625 487.917969 329.632812 487.726562 328.886719 487.5 C 328.140625 487.273438 327.40625 487.007812 326.683594 486.710938 C 325.964844 486.410156 325.257812 486.078125 324.570312 485.707031 C 323.882812 485.339844 323.210938 484.9375 322.5625 484.503906 C 321.914062 484.070312 321.289062 483.605469 320.683594 483.109375 C 320.082031 482.613281 319.503906 482.089844 318.949219 481.539062 C 318.398438 480.984375 317.875 480.40625 317.378906 479.804688 C 316.882812 479.199219 316.417969 478.574219 315.984375 477.925781 C 315.550781 477.273438 315.148438 476.605469 314.78125 475.917969 C 314.414062 475.226562 314.078125 474.523438 313.78125 473.800781 C 313.480469 473.082031 313.21875 472.347656 312.992188 471.597656 C 312.761719 470.851562 312.574219 470.09375 312.421875 469.328125 C 312.269531 468.5625 312.152344 467.789062 312.074219 467.011719 C 311.996094 466.234375 311.957031 465.457031 311.957031 464.675781 L 311.957031 333.167969 L 398.550781 275.421875 C 399.203125 275.003906 399.882812 274.632812 400.589844 274.308594 C 401.296875 273.988281 402.019531 273.71875 402.765625 273.5 C 403.511719 273.28125 404.265625 273.117188 405.035156 273.003906 C 405.804688 272.894531 406.578125 272.839844 407.351562 272.839844 C 408.128906 272.839844 408.902344 272.894531 409.667969 273.003906 C 410.4375 273.117188 411.195312 273.28125 411.941406 273.5 C 412.683594 273.71875 413.410156 273.988281 414.117188 274.308594 C 414.824219 274.632812 415.503906 275.003906 416.15625 275.421875 L 502.746094 333.167969 Z M 502.746094 464.675781 " clip-rule="nonzero"/></clipPath><linearGradient x1="3.5" gradientTransform="matrix(9.539473, 0, 0, 9.542879, 102.089708, 75.309649)" y1="31.926001" x2="60.499998" gradientUnits="userSpaceOnUse" y2="31.926001" id="id3"><stop stop-opacity="1" stop-color="rgb(100%, 34.498596%, 35.299683%)" offset="0"/><stop stop-opacity="1" stop-color="rgb(99.989319%, 34.49707%, 35.415649%)" offset="0.0078125"/><stop stop-opacity="1" stop-color="rgb(99.967957%, 34.494019%, 35.647583%)" offset="0.015625"/><stop stop-opacity="1" stop-color="rgb(99.946594%, 34.490967%, 35.881042%)" offset="0.0234375"/><stop stop-opacity="1" stop-color="rgb(99.925232%, 34.487915%, 36.112976%)" offset="0.03125"/><stop stop-opacity="1" stop-color="rgb(99.90387%, 34.484863%, 36.346436%)" offset="0.0390625"/><stop stop-opacity="1" stop-color="rgb(99.882507%, 34.481812%, 36.579895%)" offset="0.046875"/><stop stop-opacity="1" stop-color="rgb(99.862671%, 34.47876%, 36.811829%)" offset="0.0546875"/><stop stop-opacity="1" stop-color="rgb(99.841309%, 34.475708%, 37.045288%)" offset="0.0625"/><stop stop-opacity="1" stop-color="rgb(99.819946%, 34.472656%, 37.277222%)" offset="0.0703125"/><stop stop-opacity="1" stop-color="rgb(99.798584%, 34.469604%, 37.510681%)" offset="0.078125"/><stop stop-opacity="1" stop-color="rgb(99.777222%, 34.466553%, 37.742615%)" offset="0.0859375"/><stop stop-opacity="1" stop-color="rgb(99.755859%, 34.463501%, 37.976074%)" offset="0.09375"/><stop stop-opacity="1" stop-color="rgb(99.736023%, 34.460449%, 38.209534%)" offset="0.101562"/><stop stop-opacity="1" stop-color="rgb(99.714661%, 34.457397%, 38.441467%)" offset="0.109375"/><stop stop-opacity="1" stop-color="rgb(99.693298%, 34.454346%, 38.674927%)" offset="0.117188"/><stop stop-opacity="1" stop-color="rgb(99.671936%, 34.451294%, 38.90686%)" offset="0.125"/><stop stop-opacity="1" stop-color="rgb(99.650574%, 34.448242%, 39.14032%)" offset="0.132812"/><stop stop-opacity="1" stop-color="rgb(99.629211%, 34.44519%, 39.372253%)" offset="0.140625"/><stop stop-opacity="1" stop-color="rgb(99.609375%, 34.442139%, 39.605713%)" offset="0.148438"/><stop stop-opacity="1" stop-color="rgb(99.588013%, 34.437561%, 39.839172%)" offset="0.15625"/><stop stop-opacity="1" stop-color="rgb(99.56665%, 34.434509%, 40.071106%)" offset="0.164062"/><stop stop-opacity="1" stop-color="rgb(99.545288%, 34.431458%, 40.304565%)" offset="0.171875"/><stop stop-opacity="1" stop-color="rgb(99.523926%, 34.428406%, 40.536499%)" offset="0.179688"/><stop stop-opacity="1" stop-color="rgb(99.504089%, 34.425354%, 40.769958%)" offset="0.1875"/><stop stop-opacity="1" stop-color="rgb(99.482727%, 34.422302%, 41.003418%)" offset="0.195312"/><stop stop-opacity="1" stop-color="rgb(99.461365%, 34.41925%, 41.235352%)" offset="0.203125"/><stop stop-opacity="1" stop-color="rgb(99.440002%, 34.416199%, 41.468811%)" offset="0.210938"/><stop stop-opacity="1" stop-color="rgb(99.41864%, 34.413147%, 41.700745%)" offset="0.21875"/><stop stop-opacity="1" stop-color="rgb(99.397278%, 34.410095%, 41.934204%)" offset="0.226562"/><stop stop-opacity="1" stop-color="rgb(99.377441%, 34.407043%, 42.166138%)" offset="0.234375"/><stop stop-opacity="1" stop-color="rgb(99.356079%, 34.403992%, 42.399597%)" offset="0.242188"/><stop stop-opacity="1" stop-color="rgb(99.334717%, 34.40094%, 42.633057%)" offset="0.25"/><stop stop-opacity="1" stop-color="rgb(99.313354%, 34.397888%, 42.86499%)" offset="0.257813"/><stop stop-opacity="1" stop-color="rgb(99.291992%, 34.394836%, 43.09845%)" offset="0.265625"/><stop stop-opacity="1" stop-color="rgb(99.27063%, 34.391785%, 43.330383%)" offset="0.273438"/><stop stop-opacity="1" stop-color="rgb(99.250793%, 34.388733%, 43.563843%)" offset="0.28125"/><stop stop-opacity="1" stop-color="rgb(99.229431%, 34.385681%, 43.795776%)" offset="0.289063"/><stop stop-opacity="1" stop-color="rgb(99.208069%, 34.382629%, 44.029236%)" offset="0.296875"/><stop stop-opacity="1" stop-color="rgb(99.186707%, 34.379578%, 44.262695%)" offset="0.304688"/><stop stop-opacity="1" stop-color="rgb(99.165344%, 34.376526%, 44.494629%)" offset="0.3125"/><stop stop-opacity="1" stop-color="rgb(99.145508%, 34.371948%, 44.728088%)" offset="0.320313"/><stop stop-opacity="1" stop-color="rgb(99.124146%, 34.368896%, 44.960022%)" offset="0.328125"/><stop stop-opacity="1" stop-color="rgb(99.102783%, 34.365845%, 45.193481%)" offset="0.335938"/><stop stop-opacity="1" stop-color="rgb(99.081421%, 34.362793%, 45.425415%)" offset="0.34375"/><stop stop-opacity="1" stop-color="rgb(99.060059%, 34.359741%, 45.658875%)" offset="0.351563"/><stop stop-opacity="1" stop-color="rgb(99.038696%, 34.356689%, 45.892334%)" offset="0.359375"/><stop stop-opacity="1" stop-color="rgb(99.01886%, 34.353638%, 46.124268%)" offset="0.367188"/><stop stop-opacity="1" stop-color="rgb(98.997498%, 34.350586%, 46.357727%)" offset="0.375"/><stop stop-opacity="1" stop-color="rgb(98.976135%, 34.347534%, 46.589661%)" offset="0.382813"/><stop stop-opacity="1" stop-color="rgb(98.954773%, 34.344482%, 46.82312%)" offset="0.390625"/><stop stop-opacity="1" stop-color="rgb(98.933411%, 34.341431%, 47.05658%)" offset="0.398438"/><stop stop-opacity="1" stop-color="rgb(98.912048%, 34.338379%, 47.288513%)" offset="0.40625"/><stop stop-opacity="1" stop-color="rgb(98.892212%, 34.335327%, 47.521973%)" offset="0.414063"/><stop stop-opacity="1" stop-color="rgb(98.87085%, 34.332275%, 47.753906%)" offset="0.421875"/><stop stop-opacity="1" stop-color="rgb(98.849487%, 34.329224%, 47.987366%)" offset="0.429688"/><stop stop-opacity="1" stop-color="rgb(98.828125%, 34.326172%, 48.219299%)" offset="0.4375"/><stop stop-opacity="1" stop-color="rgb(98.806763%, 34.32312%, 48.452759%)" offset="0.445313"/><stop stop-opacity="1" stop-color="rgb(98.786926%, 34.320068%, 48.686218%)" offset="0.453125"/><stop stop-opacity="1" stop-color="rgb(98.765564%, 34.317017%, 48.918152%)" offset="0.460938"/><stop stop-opacity="1" stop-color="rgb(98.744202%, 34.313965%, 49.151611%)" offset="0.46875"/><stop stop-opacity="1" stop-color="rgb(98.722839%, 34.309387%, 49.383545%)" offset="0.476563"/><stop stop-opacity="1" stop-color="rgb(98.701477%, 34.306335%, 49.617004%)" offset="0.484375"/><stop stop-opacity="1" stop-color="rgb(98.680115%, 34.303284%, 49.848938%)" offset="0.492188"/><stop stop-opacity="1" stop-color="rgb(98.660278%, 34.300232%, 50.082397%)" offset="0.5"/><stop stop-opacity="1" stop-color="rgb(98.638916%, 34.29718%, 50.315857%)" offset="0.507812"/><stop stop-opacity="1" stop-color="rgb(98.617554%, 34.294128%, 50.547791%)" offset="0.515625"/><stop stop-opacity="1" stop-color="rgb(98.596191%, 34.291077%, 50.78125%)" offset="0.523437"/><stop stop-opacity="1" stop-color="rgb(98.574829%, 34.288025%, 51.013184%)" offset="0.53125"/><stop stop-opacity="1" stop-color="rgb(98.553467%, 34.284973%, 51.246643%)" offset="0.539062"/><stop stop-opacity="1" stop-color="rgb(98.53363%, 34.281921%, 51.478577%)" offset="0.546875"/><stop stop-opacity="1" stop-color="rgb(98.512268%, 34.27887%, 51.712036%)" offset="0.554688"/><stop stop-opacity="1" stop-color="rgb(98.490906%, 34.275818%, 51.945496%)" offset="0.5625"/><stop stop-opacity="1" stop-color="rgb(98.469543%, 34.272766%, 52.177429%)" offset="0.570312"/><stop stop-opacity="1" stop-color="rgb(98.448181%, 34.269714%, 52.410889%)" offset="0.578125"/><stop stop-opacity="1" stop-color="rgb(98.428345%, 34.266663%, 52.642822%)" offset="0.585938"/><stop stop-opacity="1" stop-color="rgb(98.406982%, 34.263611%, 52.876282%)" offset="0.59375"/><stop stop-opacity="1" stop-color="rgb(98.38562%, 34.260559%, 53.108215%)" offset="0.601562"/><stop stop-opacity="1" stop-color="rgb(98.364258%, 34.257507%, 53.341675%)" offset="0.609375"/><stop stop-opacity="1" stop-color="rgb(98.342896%, 34.254456%, 53.575134%)" offset="0.617188"/><stop stop-opacity="1" stop-color="rgb(98.321533%, 34.251404%, 53.807068%)" offset="0.625"/><stop stop-opacity="1" stop-color="rgb(98.301697%, 34.248352%, 54.040527%)" offset="0.632812"/><stop stop-opacity="1" stop-color="rgb(98.280334%, 34.243774%, 54.272461%)" offset="0.640625"/><stop stop-opacity="1" stop-color="rgb(98.258972%, 34.240723%, 54.50592%)" offset="0.648438"/><stop stop-opacity="1" stop-color="rgb(98.23761%, 34.237671%, 54.73938%)" offset="0.65625"/><stop stop-opacity="1" stop-color="rgb(98.216248%, 34.234619%, 54.971313%)" offset="0.664062"/><stop stop-opacity="1" stop-color="rgb(98.194885%, 34.231567%, 55.204773%)" offset="0.671875"/><stop stop-opacity="1" stop-color="rgb(98.175049%, 34.228516%, 55.436707%)" offset="0.679688"/><stop stop-opacity="1" stop-color="rgb(98.153687%, 34.225464%, 55.670166%)" offset="0.6875"/><stop stop-opacity="1" stop-color="rgb(98.132324%, 34.222412%, 55.9021%)" offset="0.695312"/><stop stop-opacity="1" stop-color="rgb(98.110962%, 34.21936%, 56.135559%)" offset="0.703125"/><stop stop-opacity="1" stop-color="rgb(98.0896%, 34.216309%, 56.369019%)" offset="0.710938"/><stop stop-opacity="1" stop-color="rgb(98.069763%, 34.213257%, 56.600952%)" offset="0.71875"/><stop stop-opacity="1" stop-color="rgb(98.048401%, 34.210205%, 56.834412%)" offset="0.726562"/><stop stop-opacity="1" stop-color="rgb(98.027039%, 34.207153%, 57.066345%)" offset="0.734375"/><stop stop-opacity="1" stop-color="rgb(98.005676%, 34.204102%, 57.299805%)" offset="0.742188"/><stop stop-opacity="1" stop-color="rgb(97.984314%, 34.20105%, 57.531738%)" offset="0.75"/><stop stop-opacity="1" stop-color="rgb(97.962952%, 34.197998%, 57.765198%)" offset="0.757812"/><stop stop-opacity="1" stop-color="rgb(97.943115%, 34.194946%, 57.998657%)" offset="0.765625"/><stop stop-opacity="1" stop-color="rgb(97.921753%, 34.191895%, 58.230591%)" offset="0.773438"/><stop stop-opacity="1" stop-color="rgb(97.900391%, 34.188843%, 58.46405%)" offset="0.78125"/><stop stop-opacity="1" stop-color="rgb(97.879028%, 34.185791%, 58.695984%)" offset="0.789063"/><stop stop-opacity="1" stop-color="rgb(97.857666%, 34.182739%, 58.929443%)" offset="0.796875"/><stop stop-opacity="1" stop-color="rgb(97.836304%, 34.178162%, 59.161377%)" offset="0.804687"/><stop stop-opacity="1" stop-color="rgb(97.816467%, 34.17511%, 59.394836%)" offset="0.8125"/><stop stop-opacity="1" stop-color="rgb(97.795105%, 34.172058%, 59.628296%)" offset="0.820312"/><stop stop-opacity="1" stop-color="rgb(97.773743%, 34.169006%, 59.860229%)" offset="0.828125"/><stop stop-opacity="1" stop-color="rgb(97.75238%, 34.165955%, 60.093689%)" offset="0.835938"/><stop stop-opacity="1" stop-color="rgb(97.731018%, 34.162903%, 60.325623%)" offset="0.84375"/><stop stop-opacity="1" stop-color="rgb(97.711182%, 34.159851%, 60.559082%)" offset="0.851562"/><stop stop-opacity="1" stop-color="rgb(97.689819%, 34.156799%, 60.791016%)" offset="0.859375"/><stop stop-opacity="1" stop-color="rgb(97.668457%, 34.153748%, 61.024475%)" offset="0.867187"/><stop stop-opacity="1" stop-color="rgb(97.647095%, 34.150696%, 61.257935%)" offset="0.875"/><stop stop-opacity="1" stop-color="rgb(97.625732%, 34.147644%, 61.489868%)" offset="0.882812"/><stop stop-opacity="1" stop-color="rgb(97.60437%, 34.144592%, 61.723328%)" offset="0.890625"/><stop stop-opacity="1" stop-color="rgb(97.584534%, 34.141541%, 61.955261%)" offset="0.898438"/><stop stop-opacity="1" stop-color="rgb(97.563171%, 34.138489%, 62.188721%)" offset="0.90625"/><stop stop-opacity="1" stop-color="rgb(97.541809%, 34.135437%, 62.42218%)" offset="0.914062"/><stop stop-opacity="1" stop-color="rgb(97.520447%, 34.132385%, 62.654114%)" offset="0.921875"/><stop stop-opacity="1" stop-color="rgb(97.499084%, 34.129333%, 62.887573%)" offset="0.929688"/><stop stop-opacity="1" stop-color="rgb(97.477722%, 34.126282%, 63.119507%)" offset="0.9375"/><stop stop-opacity="1" stop-color="rgb(97.457886%, 34.12323%, 63.352966%)" offset="0.945312"/><stop stop-opacity="1" stop-color="rgb(97.436523%, 34.120178%, 63.5849%)" offset="0.953125"/><stop stop-opacity="1" stop-color="rgb(97.415161%, 34.117126%, 63.818359%)" offset="0.960938"/><stop stop-opacity="1" stop-color="rgb(97.393799%, 34.112549%, 64.051819%)" offset="0.96875"/><stop stop-opacity="1" stop-color="rgb(97.372437%, 34.109497%, 64.283752%)" offset="0.976562"/><stop stop-opacity="1" stop-color="rgb(97.3526%, 34.106445%, 64.517212%)" offset="0.984375"/><stop stop-opacity="1" stop-color="rgb(97.331238%, 34.103394%, 64.749146%)" offset="0.992188"/><stop stop-opacity="1" stop-color="rgb(97.309875%, 34.100342%, 64.982605%)" offset="1"/></linearGradient></defs><g clip-path="url(#id1)"><g clip-path="url(#id2)"><path fill="url(#id3)" d="M 135.476562 57.855469 L 135.476562 741.488281 L 679.226562 741.488281 L 679.226562 57.855469 Z M 135.476562 57.855469 " fill-rule="nonzero"/></g></g></svg>