<svg xmlns="http://www.w3.org/2000/svg" xmlns:xlink="http://www.w3.org/1999/xlink" width="1024" zoomAndPan="magnify" viewBox="0 0 768 767.999994" height="1024" preserveAspectRatio="xMidYMid meet" version="1.0"><defs><clipPath id="id1"><path d="M 66 65 L 713 65 L 713 712 L 66 712 Z M 66 65 " clip-rule="nonzero"/></clipPath><clipPath id="id2"><path d="M 565.320312 72.554688 C 448.304688 63.117188 331.285156 63.097656 214.269531 72.5 C 212.023438 72.667969 209.785156 72.886719 207.550781 73.152344 C 205.320312 73.421875 203.09375 73.738281 200.871094 74.105469 C 198.652344 74.46875 196.441406 74.886719 194.242188 75.351562 C 192.039062 75.8125 189.851562 76.328125 187.671875 76.886719 C 185.492188 77.449219 183.328125 78.058594 181.175781 78.714844 C 179.023438 79.371094 176.890625 80.074219 174.769531 80.828125 C 172.648438 81.578125 170.546875 82.375 168.460938 83.21875 C 166.375 84.066406 164.308594 84.957031 162.265625 85.890625 C 160.21875 86.828125 158.195312 87.808594 156.191406 88.832031 C 154.1875 89.859375 152.210938 90.925781 150.253906 92.039062 C 148.300781 93.152344 146.371094 94.308594 144.46875 95.507812 C 142.5625 96.707031 140.6875 97.945312 138.839844 99.226562 C 136.988281 100.507812 135.167969 101.832031 133.378906 103.191406 C 131.589844 104.554688 129.828125 105.953125 128.101562 107.394531 C 126.371094 108.835938 124.675781 110.3125 123.011719 111.828125 C 121.347656 113.339844 119.71875 114.894531 118.125 116.480469 C 116.53125 118.066406 114.972656 119.6875 113.449219 121.34375 C 111.925781 123 110.441406 124.6875 108.992188 126.410156 C 107.546875 128.132812 106.136719 129.882812 104.765625 131.667969 C 103.394531 133.453125 102.066406 135.265625 100.773438 137.109375 C 99.484375 138.953125 98.234375 140.820312 97.027344 142.71875 C 95.820312 144.617188 94.65625 146.542969 93.535156 148.492188 C 92.410156 150.441406 91.332031 152.414062 90.296875 154.414062 C 89.261719 156.410156 88.273438 158.429688 87.328125 160.472656 C 86.382812 162.511719 85.480469 164.574219 84.628906 166.652344 C 83.773438 168.734375 82.964844 170.835938 82.203125 172.949219 C 81.441406 175.066406 80.726562 177.199219 80.058594 179.347656 C 79.394531 181.496094 78.773438 183.660156 78.203125 185.835938 C 77.632812 188.011719 77.109375 190.199219 76.632812 192.398438 C 76.160156 194.597656 75.734375 196.804688 75.355469 199.023438 C 74.980469 201.242188 74.652344 203.464844 74.371094 205.699219 C 74.09375 207.929688 73.867188 210.167969 73.6875 212.410156 C 64.214844 329.425781 64.195312 446.445312 73.632812 563.464844 C 73.800781 565.707031 74.019531 567.945312 74.285156 570.179688 C 74.554688 572.414062 74.871094 574.640625 75.238281 576.859375 C 75.601562 579.078125 76.019531 581.289062 76.484375 583.488281 C 76.945312 585.691406 77.460938 587.882812 78.019531 590.058594 C 78.582031 592.238281 79.191406 594.402344 79.847656 596.554688 C 80.503906 598.707031 81.207031 600.84375 81.960938 602.960938 C 82.710938 605.082031 83.507812 607.1875 84.351562 609.269531 C 85.199219 611.355469 86.089844 613.421875 87.023438 615.46875 C 87.960938 617.511719 88.941406 619.539062 89.964844 621.539062 C 90.992188 623.542969 92.058594 625.519531 93.171875 627.476562 C 94.285156 629.429688 95.441406 631.359375 96.640625 633.265625 C 97.839844 635.167969 99.078125 637.042969 100.359375 638.894531 C 101.640625 640.742188 102.964844 642.5625 104.324219 644.351562 C 105.6875 646.144531 107.085938 647.902344 108.527344 649.632812 C 109.96875 651.359375 111.445312 653.054688 112.960938 654.71875 C 114.472656 656.382812 116.027344 658.011719 117.613281 659.605469 C 119.199219 661.199219 120.820312 662.757812 122.476562 664.28125 C 124.132812 665.804688 125.820312 667.289062 127.542969 668.738281 C 129.265625 670.183594 131.015625 671.59375 132.800781 672.964844 C 134.585938 674.335938 136.398438 675.664062 138.242188 676.957031 C 140.085938 678.246094 141.953125 679.496094 143.851562 680.703125 C 145.75 681.910156 147.675781 683.074219 149.625 684.195312 C 151.574219 685.320312 153.546875 686.398438 155.546875 687.433594 C 157.542969 688.46875 159.5625 689.457031 161.605469 690.402344 C 163.644531 691.347656 165.707031 692.25 167.785156 693.105469 C 169.867188 693.957031 171.96875 694.765625 174.082031 695.527344 C 176.199219 696.289062 178.332031 697.003906 180.480469 697.671875 C 182.628906 698.339844 184.792969 698.957031 186.96875 699.527344 C 189.144531 700.101562 191.332031 700.625 193.53125 701.097656 C 195.730469 701.574219 197.9375 702 200.15625 702.375 C 202.375 702.753906 204.597656 703.078125 206.832031 703.359375 C 209.0625 703.636719 211.300781 703.867188 213.542969 704.046875 C 330.558594 713.515625 447.578125 713.535156 564.597656 704.101562 C 566.839844 703.933594 569.078125 703.714844 571.3125 703.445312 C 573.546875 703.179688 575.773438 702.859375 577.992188 702.496094 C 580.210938 702.128906 582.421875 701.714844 584.621094 701.25 C 586.824219 700.785156 589.015625 700.273438 591.191406 699.710938 C 593.371094 699.148438 595.535156 698.542969 597.6875 697.882812 C 599.839844 697.226562 601.976562 696.523438 604.09375 695.773438 C 606.214844 695.019531 608.320312 694.222656 610.402344 693.378906 C 612.488281 692.535156 614.554688 691.644531 616.601562 690.707031 C 618.644531 689.773438 620.671875 688.792969 622.671875 687.765625 C 624.675781 686.742188 626.652344 685.671875 628.609375 684.558594 C 630.5625 683.445312 632.492188 682.289062 634.398438 681.089844 C 636.300781 679.894531 638.175781 678.652344 640.027344 677.371094 C 641.875 676.089844 643.695312 674.769531 645.484375 673.40625 C 647.277344 672.042969 649.035156 670.644531 650.765625 669.203125 C 652.492188 667.765625 654.1875 666.285156 655.851562 664.773438 C 657.515625 663.257812 659.144531 661.707031 660.738281 660.121094 C 662.332031 658.53125 663.890625 656.910156 665.414062 655.253906 C 666.9375 653.597656 668.421875 651.910156 669.871094 650.1875 C 671.320312 648.46875 672.726562 646.714844 674.097656 644.929688 C 675.46875 643.144531 676.800781 641.332031 678.089844 639.488281 C 679.378906 637.648438 680.628906 635.777344 681.835938 633.878906 C 683.042969 631.980469 684.207031 630.054688 685.332031 628.105469 C 686.453125 626.15625 687.53125 624.183594 688.566406 622.1875 C 689.601562 620.1875 690.589844 618.167969 691.535156 616.128906 C 692.484375 614.085938 693.382812 612.023438 694.238281 609.945312 C 695.089844 607.863281 695.898438 605.765625 696.660156 603.648438 C 697.421875 601.53125 698.136719 599.398438 698.804688 597.25 C 699.472656 595.101562 700.089844 592.9375 700.660156 590.761719 C 701.234375 588.585938 701.757812 586.398438 702.230469 584.199219 C 702.707031 582 703.132812 579.792969 703.507812 577.574219 C 703.886719 575.359375 704.210938 573.132812 704.492188 570.898438 C 704.769531 568.667969 705 566.429688 705.179688 564.1875 C 709.894531 505.890625 712.292969 446.714844 712.292969 388.300781 C 712.292969 330.101562 709.917969 271.171875 705.234375 213.136719 C 705.066406 210.890625 704.847656 208.652344 704.578125 206.417969 C 704.3125 204.1875 703.992188 201.960938 703.628906 199.738281 C 703.261719 197.519531 702.847656 195.308594 702.382812 193.109375 C 701.917969 190.90625 701.40625 188.71875 700.84375 186.539062 C 700.28125 184.359375 699.675781 182.195312 699.015625 180.042969 C 698.359375 177.890625 697.65625 175.757812 696.90625 173.636719 C 696.152344 171.515625 695.355469 169.414062 694.511719 167.328125 C 693.667969 165.242188 692.777344 163.175781 691.839844 161.128906 C 690.90625 159.085938 689.925781 157.0625 688.898438 155.058594 C 687.875 153.054688 686.804688 151.078125 685.691406 149.121094 C 684.578125 147.167969 683.421875 145.238281 682.222656 143.335938 C 681.027344 141.429688 679.785156 139.554688 678.503906 137.703125 C 677.222656 135.855469 675.902344 134.035156 674.539062 132.246094 C 673.175781 130.457031 671.777344 128.695312 670.335938 126.96875 C 668.898438 125.238281 667.417969 123.542969 665.90625 121.878906 C 664.390625 120.214844 662.839844 118.585938 661.253906 116.992188 C 659.664062 115.398438 658.042969 113.839844 656.386719 112.316406 C 654.730469 110.792969 653.042969 109.308594 651.320312 107.859375 C 649.601562 106.414062 647.847656 105.003906 646.0625 103.632812 C 644.277344 102.261719 642.464844 100.933594 640.621094 99.640625 C 638.78125 98.351562 636.910156 97.101562 635.011719 95.894531 C 633.113281 94.6875 631.1875 93.523438 629.238281 92.402344 C 627.289062 91.277344 625.316406 90.199219 623.320312 89.164062 C 621.320312 88.128906 619.300781 87.140625 617.261719 86.195312 C 615.21875 85.25 613.15625 84.347656 611.078125 83.496094 C 608.996094 82.640625 606.898438 81.832031 604.78125 81.070312 C 602.664062 80.308594 600.53125 79.59375 598.382812 78.925781 C 596.234375 78.261719 594.070312 77.640625 591.894531 77.070312 C 589.71875 76.5 587.53125 75.976562 585.332031 75.5 C 583.132812 75.027344 580.925781 74.601562 578.707031 74.222656 C 576.492188 73.847656 574.265625 73.519531 572.03125 73.238281 C 569.800781 72.960938 567.5625 72.734375 565.320312 72.554688 Z M 671.304688 561.445312 C 671.164062 563.1875 670.984375 564.929688 670.765625 566.667969 C 670.546875 568.402344 670.292969 570.132812 669.996094 571.859375 C 669.703125 573.582031 669.371094 575.300781 669 577.011719 C 668.628906 578.722656 668.222656 580.425781 667.777344 582.117188 C 667.332031 583.808594 666.847656 585.492188 666.328125 587.164062 C 665.808594 588.832031 665.25 590.492188 664.65625 592.136719 C 664.0625 593.785156 663.433594 595.417969 662.769531 597.035156 C 662.101562 598.65625 661.402344 600.257812 660.664062 601.84375 C 659.925781 603.433594 659.15625 605.003906 658.351562 606.558594 C 657.542969 608.109375 656.703125 609.644531 655.828125 611.160156 C 654.957031 612.679688 654.046875 614.175781 653.109375 615.648438 C 652.167969 617.125 651.195312 618.582031 650.191406 620.015625 C 649.1875 621.445312 648.148438 622.855469 647.082031 624.246094 C 646.015625 625.632812 644.917969 626.996094 643.789062 628.332031 C 642.664062 629.671875 641.507812 630.984375 640.320312 632.273438 C 639.136719 633.558594 637.921875 634.820312 636.679688 636.054688 C 635.441406 637.289062 634.171875 638.496094 632.878906 639.671875 C 631.582031 640.851562 630.261719 642 628.917969 643.117188 C 627.570312 644.238281 626.203125 645.324219 624.808594 646.382812 C 623.414062 647.441406 622 648.46875 620.558594 649.464844 C 619.121094 650.460938 617.660156 651.425781 616.179688 652.359375 C 614.695312 653.289062 613.195312 654.1875 611.671875 655.050781 C 610.152344 655.917969 608.613281 656.746094 607.054688 657.542969 C 605.496094 658.339844 603.921875 659.105469 602.328125 659.832031 C 600.734375 660.558594 599.128906 661.25 597.507812 661.90625 C 595.882812 662.5625 594.246094 663.179688 592.597656 663.765625 C 590.949219 664.347656 589.285156 664.894531 587.609375 665.40625 C 585.9375 665.914062 584.253906 666.386719 582.558594 666.824219 C 580.863281 667.257812 579.15625 667.65625 577.445312 668.015625 C 575.734375 668.375 574.011719 668.699219 572.285156 668.984375 C 570.558594 669.265625 568.828125 669.511719 567.089844 669.71875 C 565.351562 669.925781 563.609375 670.09375 561.863281 670.226562 C 446.671875 679.476562 331.476562 679.457031 216.285156 670.171875 C 214.542969 670.03125 212.800781 669.851562 211.066406 669.632812 C 209.328125 669.414062 207.597656 669.160156 205.871094 668.863281 C 204.148438 668.570312 202.429688 668.238281 200.71875 667.867188 C 199.007812 667.496094 197.308594 667.089844 195.613281 666.644531 C 193.921875 666.199219 192.238281 665.714844 190.570312 665.195312 C 188.898438 664.675781 187.238281 664.117188 185.59375 663.523438 C 183.945312 662.929688 182.3125 662.300781 180.695312 661.636719 C 179.078125 660.96875 177.472656 660.269531 175.886719 659.53125 C 174.296875 658.792969 172.726562 658.023438 171.175781 657.21875 C 169.621094 656.410156 168.085938 655.570312 166.570312 654.695312 C 165.054688 653.824219 163.558594 652.914062 162.082031 651.976562 C 160.605469 651.035156 159.148438 650.0625 157.71875 649.058594 C 156.285156 648.054688 154.875 647.015625 153.488281 645.949219 C 152.097656 644.882812 150.738281 643.785156 149.398438 642.65625 C 148.058594 641.53125 146.746094 640.375 145.457031 639.1875 C 144.171875 638.003906 142.910156 636.789062 141.675781 635.546875 C 140.441406 634.308594 139.238281 633.039062 138.058594 631.746094 C 136.882812 630.449219 135.734375 629.128906 134.613281 627.785156 C 133.496094 626.4375 132.40625 625.070312 131.347656 623.675781 C 130.289062 622.28125 129.261719 620.867188 128.265625 619.425781 C 127.269531 617.988281 126.304688 616.527344 125.375 615.046875 C 124.441406 613.5625 123.542969 612.0625 122.679688 610.539062 C 121.8125 609.019531 120.984375 607.480469 120.1875 605.921875 C 119.390625 604.363281 118.628906 602.789062 117.902344 601.195312 C 117.171875 599.601562 116.480469 597.996094 115.824219 596.375 C 115.171875 594.75 114.550781 593.113281 113.964844 591.464844 C 113.382812 589.816406 112.835938 588.152344 112.328125 586.476562 C 111.816406 584.804688 111.34375 583.121094 110.90625 581.425781 C 110.472656 579.730469 110.074219 578.023438 109.714844 576.3125 C 109.355469 574.601562 109.03125 572.878906 108.75 571.152344 C 108.464844 569.425781 108.21875 567.695312 108.011719 565.957031 C 107.804688 564.21875 107.636719 562.476562 107.503906 560.730469 C 98.21875 445.535156 98.238281 330.34375 107.5625 215.152344 C 107.703125 213.410156 107.878906 211.667969 108.097656 209.933594 C 108.316406 208.195312 108.574219 206.464844 108.867188 204.738281 C 109.160156 203.015625 109.492188 201.296875 109.863281 199.585938 C 110.234375 197.875 110.640625 196.175781 111.089844 194.480469 C 111.535156 192.789062 112.015625 191.105469 112.535156 189.4375 C 113.058594 187.765625 113.613281 186.105469 114.207031 184.460938 C 114.800781 182.8125 115.429688 181.179688 116.097656 179.5625 C 116.761719 177.945312 117.464844 176.339844 118.199219 174.753906 C 118.9375 173.164062 119.707031 171.59375 120.515625 170.042969 C 121.320312 168.488281 122.160156 166.953125 123.035156 165.4375 C 123.910156 163.921875 124.816406 162.425781 125.757812 160.949219 C 126.695312 159.472656 127.667969 158.015625 128.671875 156.585938 C 129.679688 155.152344 130.714844 153.742188 131.78125 152.355469 C 132.847656 150.964844 133.945312 149.605469 135.074219 148.265625 C 136.199219 146.925781 137.355469 145.613281 138.542969 144.324219 C 139.726562 143.039062 140.941406 141.777344 142.183594 140.542969 C 143.425781 139.308594 144.691406 138.105469 145.988281 136.925781 C 147.28125 135.75 148.601562 134.601562 149.945312 133.480469 C 151.292969 132.363281 152.660156 131.273438 154.054688 130.214844 C 155.449219 129.15625 156.867188 128.128906 158.304688 127.132812 C 159.742188 126.136719 161.203125 125.171875 162.6875 124.242188 C 164.167969 123.308594 165.667969 122.410156 167.191406 121.546875 C 168.710938 120.679688 170.253906 119.851562 171.808594 119.054688 C 173.367188 118.257812 174.945312 117.496094 176.535156 116.769531 C 178.128906 116.039062 179.734375 115.347656 181.359375 114.691406 C 182.980469 114.039062 184.617188 113.417969 186.265625 112.832031 C 187.917969 112.25 189.578125 111.703125 191.253906 111.195312 C 192.925781 110.683594 194.613281 110.210938 196.308594 109.773438 C 198.003906 109.339844 199.707031 108.941406 201.417969 108.582031 C 203.132812 108.222656 204.851562 107.898438 206.578125 107.617188 C 208.304688 107.332031 210.039062 107.085938 211.777344 106.878906 C 213.511719 106.671875 215.253906 106.503906 217 106.371094 C 332.195312 97.085938 447.386719 97.105469 562.578125 106.429688 C 564.320312 106.570312 566.0625 106.746094 567.800781 106.964844 C 569.535156 107.183594 571.265625 107.441406 572.992188 107.734375 C 574.714844 108.027344 576.433594 108.359375 578.144531 108.730469 C 579.855469 109.101562 581.558594 109.507812 583.25 109.957031 C 584.941406 110.402344 586.625 110.882812 588.296875 111.402344 C 589.964844 111.925781 591.625 112.480469 593.269531 113.074219 C 594.917969 113.667969 596.550781 114.296875 598.167969 114.964844 C 599.789062 115.628906 601.390625 116.332031 602.976562 117.066406 C 604.566406 117.804688 606.136719 118.574219 607.691406 119.382812 C 609.242188 120.1875 610.777344 121.027344 612.292969 121.902344 C 613.8125 122.777344 615.308594 123.683594 616.78125 124.625 C 618.257812 125.5625 619.714844 126.535156 621.148438 127.539062 C 622.578125 128.546875 623.988281 129.582031 625.378906 130.648438 C 626.765625 131.714844 628.128906 132.8125 629.464844 133.941406 C 630.804688 135.066406 632.117188 136.222656 633.40625 137.410156 C 634.691406 138.59375 635.953125 139.808594 637.1875 141.050781 C 638.421875 142.292969 639.628906 143.558594 640.804688 144.855469 C 641.984375 146.148438 643.132812 147.46875 644.25 148.8125 C 645.371094 150.160156 646.457031 151.527344 647.515625 152.921875 C 648.574219 154.316406 649.601562 155.734375 650.597656 157.171875 C 651.59375 158.609375 652.558594 160.070312 653.492188 161.554688 C 654.421875 163.035156 655.320312 164.535156 656.183594 166.058594 C 657.050781 167.578125 657.878906 169.121094 658.675781 170.675781 C 659.472656 172.234375 660.238281 173.8125 660.964844 175.402344 C 661.691406 176.996094 662.382812 178.601562 663.039062 180.226562 C 663.695312 181.847656 664.3125 183.484375 664.898438 185.132812 C 665.480469 186.785156 666.027344 188.445312 666.539062 190.121094 C 667.046875 191.792969 667.519531 193.480469 667.957031 195.175781 C 668.390625 196.871094 668.789062 198.574219 669.148438 200.285156 C 669.507812 202 669.832031 203.71875 670.117188 205.445312 C 670.398438 207.171875 670.644531 208.90625 670.851562 210.644531 C 671.058594 212.378906 671.226562 214.121094 671.359375 215.867188 C 680.644531 331.0625 680.625 446.253906 671.304688 561.445312 Z M 587.679688 262.09375 C 587.664062 260.332031 587.582031 258.574219 587.4375 256.816406 C 587.292969 255.0625 587.082031 253.3125 586.8125 251.574219 C 586.539062 249.832031 586.203125 248.105469 585.804688 246.386719 C 585.402344 244.671875 584.941406 242.972656 584.421875 241.289062 C 583.898438 239.609375 583.3125 237.949219 582.667969 236.308594 C 582.023438 234.667969 581.320312 233.054688 580.558594 231.464844 C 579.796875 229.878906 578.976562 228.320312 578.097656 226.792969 C 577.222656 225.261719 576.292969 223.769531 575.308594 222.308594 C 574.320312 220.847656 573.285156 219.425781 572.195312 218.042969 C 571.105469 216.65625 569.964844 215.3125 568.777344 214.011719 C 567.589844 212.710938 566.355469 211.457031 565.078125 210.246094 C 563.796875 209.035156 562.476562 207.871094 561.113281 206.757812 C 559.746094 205.640625 558.34375 204.578125 556.902344 203.566406 C 555.460938 202.554688 553.980469 201.597656 552.46875 200.691406 C 550.957031 199.789062 549.414062 198.941406 547.839844 198.148438 C 546.265625 197.359375 544.664062 196.625 543.039062 195.953125 C 541.410156 195.277344 539.761719 194.664062 538.085938 194.109375 C 536.414062 193.558594 534.726562 193.066406 533.015625 192.636719 C 531.308594 192.203125 529.585938 191.839844 527.851562 191.535156 C 526.117188 191.230469 524.371094 190.988281 522.617188 190.8125 C 520.867188 190.636719 519.109375 190.523438 517.347656 190.476562 C 515.585938 190.425781 513.824219 190.441406 512.066406 190.523438 C 510.304688 190.601562 508.550781 190.746094 506.800781 190.957031 C 505.050781 191.164062 503.3125 191.4375 501.582031 191.773438 C 499.855469 192.109375 498.140625 192.507812 496.4375 192.96875 C 494.738281 193.429688 493.058594 193.949219 491.394531 194.535156 C 489.734375 195.117188 488.09375 195.761719 486.480469 196.464844 C 484.863281 197.171875 483.277344 197.929688 481.71875 198.75 C 480.15625 199.570312 478.628906 200.445312 477.136719 201.378906 C 475.640625 202.308594 474.179688 203.292969 472.757812 204.332031 C 471.332031 205.371094 469.949219 206.457031 468.605469 207.597656 C 467.261719 208.734375 465.960938 209.921875 464.703125 211.15625 L 389.433594 286.421875 L 314.167969 211.15625 C 312.910156 209.921875 311.609375 208.734375 310.265625 207.597656 C 308.917969 206.457031 307.535156 205.367188 306.113281 204.332031 C 304.6875 203.292969 303.230469 202.308594 301.734375 201.378906 C 300.238281 200.445312 298.710938 199.570312 297.152344 198.75 C 295.589844 197.933594 294.003906 197.171875 292.390625 196.46875 C 290.773438 195.761719 289.136719 195.121094 287.472656 194.535156 C 285.808594 193.953125 284.128906 193.429688 282.429688 192.96875 C 280.726562 192.507812 279.011719 192.109375 277.285156 191.773438 C 275.554688 191.4375 273.816406 191.167969 272.066406 190.957031 C 270.316406 190.75 268.5625 190.605469 266.800781 190.523438 C 265.042969 190.445312 263.28125 190.429688 261.519531 190.476562 C 259.757812 190.527344 258.003906 190.636719 256.25 190.816406 C 254.496094 190.992188 252.753906 191.234375 251.015625 191.535156 C 249.28125 191.839844 247.558594 192.207031 245.851562 192.636719 C 244.144531 193.070312 242.453125 193.5625 240.78125 194.113281 C 239.109375 194.667969 237.457031 195.28125 235.828125 195.957031 C 234.203125 196.628906 232.601562 197.363281 231.027344 198.152344 C 229.453125 198.945312 227.910156 199.792969 226.398438 200.695312 C 224.886719 201.601562 223.410156 202.558594 221.964844 203.570312 C 220.523438 204.582031 219.121094 205.644531 217.757812 206.761719 C 216.390625 207.875 215.070312 209.039062 213.789062 210.25 C 212.511719 211.460938 211.277344 212.714844 210.089844 214.015625 C 208.902344 215.316406 207.761719 216.660156 206.675781 218.046875 C 205.585938 219.429688 204.546875 220.851562 203.5625 222.3125 C 202.574219 223.773438 201.644531 225.265625 200.769531 226.792969 C 199.890625 228.324219 199.070312 229.882812 198.308594 231.46875 C 197.546875 233.058594 196.84375 234.671875 196.199219 236.3125 C 195.554688 237.949219 194.96875 239.613281 194.445312 241.292969 C 193.921875 242.976562 193.460938 244.675781 193.0625 246.390625 C 192.664062 248.105469 192.328125 249.835938 192.054688 251.574219 C 191.78125 253.316406 191.574219 255.0625 191.429688 256.820312 C 191.285156 258.574219 191.203125 260.335938 191.1875 262.097656 C 191.171875 266.828125 191.625 271.515625 192.542969 276.15625 C 193.460938 280.796875 194.824219 285.304688 196.632812 289.675781 C 198.445312 294.046875 200.667969 298.199219 203.304688 302.128906 C 205.9375 306.058594 208.933594 309.691406 212.289062 313.027344 L 287.554688 388.300781 L 212.289062 463.566406 C 211.453125 464.398438 210.640625 465.253906 209.851562 466.125 C 209.058594 467 208.289062 467.890625 207.539062 468.804688 C 206.792969 469.714844 206.066406 470.644531 205.363281 471.589844 C 204.664062 472.539062 203.984375 473.5 203.328125 474.480469 C 202.675781 475.460938 202.042969 476.457031 201.4375 477.46875 C 200.832031 478.480469 200.25 479.503906 199.695312 480.542969 C 199.140625 481.585938 198.609375 482.636719 198.105469 483.703125 C 197.601562 484.769531 197.125 485.847656 196.671875 486.933594 C 196.222656 488.023438 195.796875 489.125 195.398438 490.234375 C 195.003906 491.34375 194.632812 492.460938 194.289062 493.589844 C 193.949219 494.71875 193.632812 495.855469 193.347656 497 C 193.0625 498.140625 192.800781 499.292969 192.574219 500.449219 C 192.34375 501.605469 192.140625 502.765625 191.96875 503.933594 C 191.792969 505.097656 191.652344 506.269531 191.535156 507.441406 C 191.417969 508.613281 191.332031 509.789062 191.273438 510.96875 C 191.21875 512.144531 191.1875 513.324219 191.1875 514.503906 C 191.1875 515.679688 191.214844 516.859375 191.273438 518.035156 C 191.332031 519.214844 191.417969 520.390625 191.535156 521.5625 C 191.648438 522.734375 191.792969 523.90625 191.96875 525.070312 C 192.140625 526.238281 192.339844 527.398438 192.570312 528.554688 C 192.800781 529.710938 193.058594 530.863281 193.347656 532.003906 C 193.632812 533.148438 193.945312 534.285156 194.289062 535.414062 C 194.632812 536.542969 195 537.660156 195.398438 538.769531 C 195.796875 539.878906 196.21875 540.980469 196.671875 542.070312 C 197.121094 543.160156 197.597656 544.234375 198.101562 545.300781 C 198.609375 546.367188 199.136719 547.421875 199.691406 548.460938 C 200.25 549.5 200.828125 550.523438 201.4375 551.535156 C 202.042969 552.546875 202.671875 553.542969 203.328125 554.523438 C 203.980469 555.503906 204.660156 556.46875 205.363281 557.414062 C 206.066406 558.363281 206.789062 559.289062 207.539062 560.203125 C 208.285156 561.113281 209.054688 562.003906 209.847656 562.878906 C 210.640625 563.753906 211.453125 564.605469 212.285156 565.441406 C 213.121094 566.273438 213.972656 567.085938 214.847656 567.878906 C 215.71875 568.667969 216.613281 569.441406 217.523438 570.1875 C 218.433594 570.933594 219.363281 571.660156 220.3125 572.363281 C 221.257812 573.066406 222.222656 573.742188 223.203125 574.398438 C 224.183594 575.054688 225.175781 575.683594 226.1875 576.289062 C 227.199219 576.898438 228.226562 577.476562 229.265625 578.035156 C 230.304688 578.589844 231.359375 579.117188 232.421875 579.625 C 233.488281 580.128906 234.566406 580.605469 235.65625 581.054688 C 236.746094 581.507812 237.84375 581.929688 238.953125 582.328125 C 240.0625 582.726562 241.183594 583.09375 242.3125 583.4375 C 243.441406 583.78125 244.574219 584.09375 245.71875 584.382812 C 246.863281 584.667969 248.011719 584.925781 249.167969 585.15625 C 250.324219 585.386719 251.488281 585.585938 252.652344 585.761719 C 253.820312 585.933594 254.988281 586.078125 256.160156 586.191406 C 257.335938 586.308594 258.511719 586.394531 259.6875 586.453125 C 260.867188 586.511719 262.042969 586.539062 263.222656 586.539062 C 264.402344 586.539062 265.578125 586.511719 266.757812 586.453125 C 267.933594 586.394531 269.109375 586.308594 270.285156 586.195312 C 271.457031 586.078125 272.625 585.933594 273.792969 585.761719 C 274.957031 585.585938 276.121094 585.386719 277.277344 585.15625 C 278.433594 584.925781 279.582031 584.667969 280.726562 584.382812 C 281.871094 584.09375 283.003906 583.78125 284.132812 583.4375 C 285.261719 583.097656 286.382812 582.726562 287.492188 582.328125 C 288.601562 581.933594 289.699219 581.507812 290.789062 581.058594 C 291.878906 580.605469 292.957031 580.128906 294.023438 579.625 C 295.089844 579.121094 296.140625 578.589844 297.179688 578.035156 C 298.21875 577.480469 299.246094 576.898438 300.257812 576.292969 C 301.269531 575.6875 302.265625 575.054688 303.246094 574.402344 C 304.222656 573.746094 305.1875 573.066406 306.136719 572.363281 C 307.082031 571.664062 308.011719 570.9375 308.921875 570.191406 C 309.832031 569.441406 310.726562 568.671875 311.601562 567.878906 C 312.472656 567.089844 313.328125 566.277344 314.160156 565.441406 L 389.433594 490.175781 L 464.699219 565.445312 C 468.035156 568.800781 471.667969 571.792969 475.601562 574.429688 C 479.53125 577.0625 483.683594 579.285156 488.054688 581.097656 C 492.425781 582.90625 496.933594 584.273438 501.574219 585.1875 C 506.21875 586.105469 510.90625 586.558594 515.636719 586.546875 C 517.398438 586.53125 519.15625 586.449219 520.914062 586.304688 C 522.667969 586.160156 524.417969 585.949219 526.160156 585.679688 C 527.898438 585.40625 529.628906 585.070312 531.34375 584.671875 C 533.058594 584.269531 534.757812 583.808594 536.441406 583.289062 C 538.121094 582.765625 539.785156 582.179688 541.421875 581.535156 C 543.0625 580.890625 544.675781 580.1875 546.265625 579.425781 C 547.851562 578.664062 549.410156 577.84375 550.941406 576.96875 C 552.46875 576.089844 553.960938 575.160156 555.421875 574.175781 C 556.882812 573.1875 558.304688 572.152344 559.691406 571.0625 C 561.074219 569.972656 562.417969 568.832031 563.71875 567.644531 C 565.019531 566.457031 566.277344 565.222656 567.488281 563.945312 C 568.699219 562.664062 569.859375 561.34375 570.976562 559.980469 C 572.089844 558.613281 573.152344 557.210938 574.164062 555.769531 C 575.175781 554.328125 576.136719 552.851562 577.039062 551.335938 C 577.941406 549.824219 578.789062 548.28125 579.582031 546.707031 C 580.371094 545.132812 581.105469 543.53125 581.78125 541.90625 C 582.453125 540.277344 583.066406 538.628906 583.621094 536.957031 C 584.175781 535.28125 584.667969 533.59375 585.097656 531.882812 C 585.527344 530.175781 585.894531 528.453125 586.199219 526.71875 C 586.503906 524.984375 586.742188 523.238281 586.917969 521.484375 C 587.097656 519.734375 587.207031 517.976562 587.257812 516.214844 C 587.304688 514.453125 587.289062 512.691406 587.210938 510.933594 C 587.128906 509.171875 586.984375 507.417969 586.777344 505.667969 C 586.566406 503.917969 586.296875 502.179688 585.960938 500.449219 C 585.625 498.722656 585.226562 497.007812 584.765625 495.304688 C 584.304688 493.605469 583.78125 491.925781 583.195312 490.261719 C 582.613281 488.601562 581.96875 486.960938 581.265625 485.347656 C 580.5625 483.730469 579.800781 482.144531 578.980469 480.585938 C 578.160156 479.023438 577.285156 477.496094 576.355469 476 C 575.421875 474.507812 574.4375 473.046875 573.398438 471.625 C 572.363281 470.199219 571.273438 468.816406 570.132812 467.472656 C 568.996094 466.128906 567.808594 464.828125 566.574219 463.570312 L 491.308594 388.300781 L 566.578125 313.035156 C 569.933594 309.695312 572.925781 306.0625 575.5625 302.132812 C 578.195312 298.199219 580.417969 294.050781 582.230469 289.675781 C 584.039062 285.304688 585.40625 280.796875 586.320312 276.15625 C 587.238281 271.511719 587.691406 266.824219 587.679688 262.09375 Z M 542.546875 289 L 455.265625 376.285156 C 454.875 376.679688 454.5 377.089844 454.148438 377.519531 C 453.792969 377.949219 453.460938 378.398438 453.152344 378.859375 C 452.84375 379.320312 452.558594 379.796875 452.296875 380.289062 C 452.035156 380.78125 451.796875 381.28125 451.582031 381.796875 C 451.371094 382.3125 451.183594 382.835938 451.019531 383.367188 C 450.859375 383.898438 450.722656 384.4375 450.617188 384.984375 C 450.507812 385.53125 450.425781 386.078125 450.371094 386.632812 C 450.316406 387.1875 450.289062 387.742188 450.289062 388.300781 C 450.289062 388.855469 450.316406 389.410156 450.371094 389.964844 C 450.425781 390.519531 450.507812 391.066406 450.617188 391.613281 C 450.722656 392.160156 450.859375 392.699219 451.019531 393.230469 C 451.183594 393.765625 451.371094 394.289062 451.582031 394.800781 C 451.796875 395.316406 452.035156 395.816406 452.296875 396.308594 C 452.558594 396.800781 452.84375 397.277344 453.152344 397.738281 C 453.460938 398.203125 453.792969 398.648438 454.148438 399.078125 C 454.5 399.507812 454.875 399.921875 455.265625 400.3125 L 542.546875 487.605469 C 577.105469 524.074219 525.425781 575.289062 488.730469 541.414062 L 401.445312 454.132812 C 401.054688 453.742188 400.640625 453.367188 400.210938 453.015625 C 399.78125 452.660156 399.335938 452.328125 398.871094 452.019531 C 398.410156 451.710938 397.933594 451.425781 397.441406 451.164062 C 396.949219 450.902344 396.449219 450.664062 395.933594 450.449219 C 395.421875 450.238281 394.898438 450.050781 394.363281 449.886719 C 393.832031 449.726562 393.292969 449.589844 392.746094 449.484375 C 392.199219 449.375 391.652344 449.292969 391.097656 449.238281 C 390.542969 449.183594 389.988281 449.15625 389.433594 449.15625 C 388.875 449.15625 388.320312 449.183594 387.765625 449.238281 C 387.210938 449.292969 386.664062 449.375 386.117188 449.484375 C 385.570312 449.589844 385.03125 449.726562 384.5 449.886719 C 383.96875 450.050781 383.445312 450.238281 382.929688 450.449219 C 382.414062 450.664062 381.914062 450.902344 381.421875 451.164062 C 380.929688 451.425781 380.453125 451.710938 379.992188 452.019531 C 379.53125 452.328125 379.082031 452.660156 378.652344 453.015625 C 378.222656 453.367188 377.8125 453.742188 377.417969 454.132812 L 290.125 541.414062 C 289.246094 542.296875 288.320312 543.128906 287.359375 543.921875 C 286.394531 544.710938 285.394531 545.449219 284.359375 546.144531 C 283.324219 546.835938 282.253906 547.472656 281.15625 548.058594 C 280.058594 548.648438 278.933594 549.179688 277.78125 549.65625 C 276.628906 550.132812 275.457031 550.550781 274.265625 550.910156 C 273.074219 551.273438 271.867188 551.574219 270.644531 551.816406 C 269.421875 552.058594 268.191406 552.242188 266.953125 552.363281 C 265.710938 552.484375 264.46875 552.546875 263.222656 552.546875 C 261.976562 552.546875 260.734375 552.484375 259.496094 552.359375 C 258.253906 552.238281 257.023438 552.054688 255.800781 551.8125 C 254.582031 551.570312 253.375 551.265625 252.179688 550.90625 C 250.988281 550.542969 249.816406 550.125 248.667969 549.648438 C 247.515625 549.167969 246.390625 548.636719 245.292969 548.050781 C 244.195312 547.460938 243.125 546.824219 242.089844 546.128906 C 241.054688 545.4375 240.054688 544.695312 239.09375 543.90625 C 238.128906 543.117188 237.207031 542.28125 236.328125 541.398438 C 235.445312 540.519531 234.609375 539.597656 233.820312 538.632812 C 233.027344 537.671875 232.289062 536.671875 231.597656 535.632812 C 230.902344 534.597656 230.265625 533.53125 229.675781 532.433594 C 229.089844 531.335938 228.558594 530.210938 228.082031 529.058594 C 227.605469 527.90625 227.183594 526.734375 226.824219 525.542969 C 226.460938 524.351562 226.160156 523.144531 225.914062 521.921875 C 225.671875 520.699219 225.488281 519.46875 225.367188 518.230469 C 225.246094 516.992188 225.183594 515.746094 225.183594 514.5 C 225.183594 513.253906 225.242188 512.011719 225.367188 510.773438 C 225.488281 509.535156 225.667969 508.300781 225.914062 507.082031 C 226.15625 505.859375 226.457031 504.652344 226.816406 503.457031 C 227.179688 502.265625 227.597656 501.09375 228.074219 499.945312 C 228.550781 498.792969 229.082031 497.667969 229.667969 496.570312 C 230.257812 495.46875 230.894531 494.402344 231.585938 493.367188 C 232.28125 492.328125 233.019531 491.332031 233.808594 490.367188 C 234.601562 489.402344 235.433594 488.480469 236.316406 487.601562 L 323.597656 400.3125 C 323.988281 399.921875 324.363281 399.507812 324.714844 399.078125 C 325.070312 398.648438 325.402344 398.203125 325.710938 397.738281 C 326.019531 397.277344 326.304688 396.800781 326.566406 396.308594 C 326.828125 395.816406 327.066406 395.316406 327.28125 394.800781 C 327.492188 394.289062 327.679688 393.765625 327.84375 393.230469 C 328.003906 392.699219 328.140625 392.160156 328.246094 391.613281 C 328.355469 391.066406 328.4375 390.519531 328.492188 389.964844 C 328.546875 389.410156 328.574219 388.855469 328.574219 388.300781 C 328.574219 387.742188 328.546875 387.1875 328.492188 386.632812 C 328.4375 386.078125 328.355469 385.53125 328.246094 384.984375 C 328.140625 384.4375 328.003906 383.898438 327.84375 383.367188 C 327.679688 382.835938 327.492188 382.3125 327.28125 381.796875 C 327.066406 381.28125 326.828125 380.78125 326.566406 380.289062 C 326.304688 379.796875 326.019531 379.320312 325.710938 378.859375 C 325.402344 378.398438 325.070312 377.949219 324.714844 377.519531 C 324.363281 377.089844 323.988281 376.679688 323.597656 376.285156 L 236.316406 288.992188 C 235.4375 288.109375 234.609375 287.183594 233.824219 286.21875 C 233.035156 285.253906 232.300781 284.253906 231.613281 283.214844 C 230.921875 282.179688 230.289062 281.109375 229.703125 280.011719 C 229.121094 278.910156 228.59375 277.785156 228.117188 276.632812 C 227.644531 275.484375 227.226562 274.3125 226.871094 273.121094 C 226.511719 271.929688 226.210938 270.722656 225.96875 269.5 C 225.726562 268.28125 225.546875 267.050781 225.425781 265.8125 C 225.304688 264.574219 225.242188 263.332031 225.242188 262.085938 C 225.242188 260.839844 225.304688 259.597656 225.425781 258.359375 C 225.546875 257.121094 225.730469 255.890625 225.972656 254.671875 C 226.214844 253.449219 226.515625 252.242188 226.875 251.050781 C 227.234375 249.859375 227.648438 248.6875 228.125 247.539062 C 228.597656 246.386719 229.128906 245.261719 229.710938 244.164062 C 230.296875 243.0625 230.933594 241.996094 231.621094 240.960938 C 232.308594 239.921875 233.046875 238.921875 233.832031 237.957031 C 234.617188 236.992188 235.449219 236.066406 236.328125 235.183594 C 237.222656 234.328125 238.15625 233.515625 239.128906 232.75 C 240.101562 231.984375 241.109375 231.265625 242.148438 230.59375 C 243.191406 229.925781 244.261719 229.304688 245.363281 228.738281 C 246.460938 228.167969 247.585938 227.65625 248.738281 227.195312 C 249.886719 226.734375 251.054688 226.328125 252.242188 225.980469 C 253.429688 225.628906 254.632812 225.335938 255.847656 225.101562 C 257.066406 224.867188 258.289062 224.691406 259.523438 224.574219 C 260.753906 224.457031 261.992188 224.398438 263.230469 224.398438 C 264.46875 224.398438 265.703125 224.457031 266.933594 224.574219 C 268.167969 224.691406 269.394531 224.867188 270.609375 225.101562 C 271.824219 225.335938 273.027344 225.628906 274.214844 225.980469 C 275.402344 226.328125 276.570312 226.734375 277.722656 227.195312 C 278.871094 227.65625 279.996094 228.167969 281.09375 228.738281 C 282.195312 229.304688 283.265625 229.925781 284.308594 230.59375 C 285.347656 231.265625 286.355469 231.984375 287.328125 232.75 C 288.300781 233.515625 289.234375 234.328125 290.132812 235.183594 L 377.417969 322.464844 C 377.808594 322.859375 378.222656 323.230469 378.652344 323.585938 C 379.082031 323.9375 379.527344 324.269531 379.992188 324.578125 C 380.453125 324.886719 380.929688 325.171875 381.421875 325.433594 C 381.914062 325.699219 382.414062 325.933594 382.929688 326.148438 C 383.441406 326.363281 383.964844 326.546875 384.5 326.710938 C 385.03125 326.871094 385.570312 327.007812 386.117188 327.117188 C 386.664062 327.222656 387.210938 327.304688 387.765625 327.359375 C 388.320312 327.414062 388.875 327.441406 389.429688 327.441406 C 389.988281 327.441406 390.542969 327.414062 391.097656 327.359375 C 391.652344 327.304688 392.199219 327.222656 392.746094 327.117188 C 393.292969 327.007812 393.832031 326.871094 394.363281 326.710938 C 394.894531 326.546875 395.417969 326.363281 395.933594 326.148438 C 396.449219 325.933594 396.949219 325.699219 397.441406 325.433594 C 397.933594 325.171875 398.410156 324.886719 398.871094 324.578125 C 399.332031 324.269531 399.78125 323.9375 400.210938 323.585938 C 400.640625 323.230469 401.050781 322.859375 401.445312 322.464844 L 488.738281 235.183594 C 490.5 233.410156 492.417969 231.828125 494.492188 230.4375 C 496.570312 229.046875 498.761719 227.871094 501.070312 226.914062 C 503.378906 225.960938 505.761719 225.238281 508.210938 224.753906 C 510.664062 224.269531 513.136719 224.03125 515.636719 224.039062 C 517.5 224.058594 519.347656 224.21875 521.1875 224.511719 C 523.027344 224.800781 524.832031 225.226562 526.609375 225.78125 C 528.386719 226.339844 530.113281 227.023438 531.789062 227.832031 C 533.464844 228.640625 535.074219 229.566406 536.617188 230.609375 C 538.160156 231.652344 539.617188 232.800781 540.988281 234.058594 C 542.363281 235.316406 543.640625 236.664062 544.816406 238.105469 C 545.992188 239.550781 547.058594 241.070312 548.011719 242.667969 C 548.96875 244.265625 549.800781 245.925781 550.511719 247.644531 C 551.226562 249.363281 551.808594 251.125 552.265625 252.933594 C 552.71875 254.738281 553.042969 256.566406 553.230469 258.417969 C 553.417969 260.269531 553.46875 262.125 553.386719 263.984375 C 553.304688 265.84375 553.085938 267.6875 552.734375 269.515625 C 552.382812 271.34375 551.898438 273.136719 551.285156 274.894531 C 550.671875 276.652344 549.933594 278.355469 549.070312 280.003906 C 548.207031 281.65625 547.230469 283.234375 546.136719 284.742188 C 545.042969 286.246094 543.847656 287.667969 542.546875 289 Z M 542.546875 289 " clip-rule="nonzero"/></clipPath><linearGradient x1="3.290264" gradientTransform="matrix(11.328397, 0, 0, 11.328397, 26.923335, 25.79048)" y1="32.000999" x2="60.499997" gradientUnits="userSpaceOnUse" y2="32.000999" id="id3"><stop stop-opacity="1" stop-color="rgb(100%, 65.098572%, 55.299377%)" offset="0"/><stop stop-opacity="1" stop-color="rgb(99.996948%, 65.010071%, 55.291748%)" offset="0.0078125"/><stop stop-opacity="1" stop-color="rgb(99.992371%, 64.756775%, 55.270386%)" offset="0.015625"/><stop stop-opacity="1" stop-color="rgb(99.986267%, 64.424133%, 55.24292%)" offset="0.0234375"/><stop stop-opacity="1" stop-color="rgb(99.980164%, 64.091492%, 55.215454%)" offset="0.03125"/><stop stop-opacity="1" stop-color="rgb(99.97406%, 63.760376%, 55.187988%)" offset="0.0390625"/><stop stop-opacity="1" stop-color="rgb(99.967957%, 63.427734%, 55.160522%)" offset="0.046875"/><stop stop-opacity="1" stop-color="rgb(99.961853%, 63.095093%, 55.133057%)" offset="0.0546875"/><stop stop-opacity="1" stop-color="rgb(99.95575%, 62.762451%, 55.105591%)" offset="0.0625"/><stop stop-opacity="1" stop-color="rgb(99.94812%, 62.42981%, 55.078125%)" offset="0.0703125"/><stop stop-opacity="1" stop-color="rgb(99.942017%, 62.097168%, 55.052185%)" offset="0.078125"/><stop stop-opacity="1" stop-color="rgb(99.935913%, 61.764526%, 55.024719%)" offset="0.0859375"/><stop stop-opacity="1" stop-color="rgb(99.92981%, 61.431885%, 54.997253%)" offset="0.09375"/><stop stop-opacity="1" stop-color="rgb(99.923706%, 61.099243%, 54.969788%)" offset="0.101562"/><stop stop-opacity="1" stop-color="rgb(99.917603%, 60.768127%, 54.942322%)" offset="0.109375"/><stop stop-opacity="1" stop-color="rgb(99.911499%, 60.435486%, 54.914856%)" offset="0.117187"/><stop stop-opacity="1" stop-color="rgb(99.905396%, 60.102844%, 54.88739%)" offset="0.125"/><stop stop-opacity="1" stop-color="rgb(99.899292%, 59.770203%, 54.859924%)" offset="0.132812"/><stop stop-opacity="1" stop-color="rgb(99.891663%, 59.437561%, 54.832458%)" offset="0.140625"/><stop stop-opacity="1" stop-color="rgb(99.885559%, 59.104919%, 54.804993%)" offset="0.148437"/><stop stop-opacity="1" stop-color="rgb(99.879456%, 58.772278%, 54.777527%)" offset="0.15625"/><stop stop-opacity="1" stop-color="rgb(99.873352%, 58.439636%, 54.750061%)" offset="0.164062"/><stop stop-opacity="1" stop-color="rgb(99.867249%, 58.106995%, 54.722595%)" offset="0.171875"/><stop stop-opacity="1" stop-color="rgb(99.861145%, 57.775879%, 54.695129%)" offset="0.179688"/><stop stop-opacity="1" stop-color="rgb(99.855042%, 57.443237%, 54.667664%)" offset="0.1875"/><stop stop-opacity="1" stop-color="rgb(99.848938%, 57.110596%, 54.640198%)" offset="0.195312"/><stop stop-opacity="1" stop-color="rgb(99.842834%, 56.777954%, 54.612732%)" offset="0.203125"/><stop stop-opacity="1" stop-color="rgb(99.835205%, 56.445312%, 54.585266%)" offset="0.210938"/><stop stop-opacity="1" stop-color="rgb(99.829102%, 56.112671%, 54.5578%)" offset="0.21875"/><stop stop-opacity="1" stop-color="rgb(99.822998%, 55.780029%, 54.530334%)" offset="0.226563"/><stop stop-opacity="1" stop-color="rgb(99.816895%, 55.447388%, 54.502869%)" offset="0.234375"/><stop stop-opacity="1" stop-color="rgb(99.810791%, 55.114746%, 54.475403%)" offset="0.242188"/><stop stop-opacity="1" stop-color="rgb(99.804688%, 54.78363%, 54.447937%)" offset="0.25"/><stop stop-opacity="1" stop-color="rgb(99.798584%, 54.450989%, 54.420471%)" offset="0.257812"/><stop stop-opacity="1" stop-color="rgb(99.79248%, 54.118347%, 54.393005%)" offset="0.265625"/><stop stop-opacity="1" stop-color="rgb(99.786377%, 53.785706%, 54.36554%)" offset="0.273438"/><stop stop-opacity="1" stop-color="rgb(99.778748%, 53.453064%, 54.338074%)" offset="0.28125"/><stop stop-opacity="1" stop-color="rgb(99.772644%, 53.120422%, 54.310608%)" offset="0.289062"/><stop stop-opacity="1" stop-color="rgb(99.766541%, 52.787781%, 54.283142%)" offset="0.296875"/><stop stop-opacity="1" stop-color="rgb(99.760437%, 52.455139%, 54.255676%)" offset="0.304687"/><stop stop-opacity="1" stop-color="rgb(99.754333%, 52.122498%, 54.22821%)" offset="0.3125"/><stop stop-opacity="1" stop-color="rgb(99.74823%, 51.791382%, 54.200745%)" offset="0.320312"/><stop stop-opacity="1" stop-color="rgb(99.742126%, 51.45874%, 54.173279%)" offset="0.328125"/><stop stop-opacity="1" stop-color="rgb(99.736023%, 51.126099%, 54.145813%)" offset="0.335938"/><stop stop-opacity="1" stop-color="rgb(99.729919%, 50.793457%, 54.118347%)" offset="0.34375"/><stop stop-opacity="1" stop-color="rgb(99.72229%, 50.460815%, 54.090881%)" offset="0.351562"/><stop stop-opacity="1" stop-color="rgb(99.716187%, 50.128174%, 54.063416%)" offset="0.359375"/><stop stop-opacity="1" stop-color="rgb(99.710083%, 49.795532%, 54.03595%)" offset="0.367188"/><stop stop-opacity="1" stop-color="rgb(99.703979%, 49.462891%, 54.008484%)" offset="0.375"/><stop stop-opacity="1" stop-color="rgb(99.697876%, 49.130249%, 53.981018%)" offset="0.382812"/><stop stop-opacity="1" stop-color="rgb(99.691772%, 48.799133%, 53.953552%)" offset="0.390625"/><stop stop-opacity="1" stop-color="rgb(99.685669%, 48.466492%, 53.926086%)" offset="0.398438"/><stop stop-opacity="1" stop-color="rgb(99.679565%, 48.13385%, 53.898621%)" offset="0.40625"/><stop stop-opacity="1" stop-color="rgb(99.673462%, 47.801208%, 53.871155%)" offset="0.414062"/><stop stop-opacity="1" stop-color="rgb(99.665833%, 47.468567%, 53.843689%)" offset="0.421875"/><stop stop-opacity="1" stop-color="rgb(99.659729%, 47.135925%, 53.816223%)" offset="0.429688"/><stop stop-opacity="1" stop-color="rgb(99.653625%, 46.803284%, 53.788757%)" offset="0.4375"/><stop stop-opacity="1" stop-color="rgb(99.647522%, 46.470642%, 53.761292%)" offset="0.445313"/><stop stop-opacity="1" stop-color="rgb(99.641418%, 46.138%, 53.733826%)" offset="0.453125"/><stop stop-opacity="1" stop-color="rgb(99.635315%, 45.806885%, 53.70636%)" offset="0.460938"/><stop stop-opacity="1" stop-color="rgb(99.629211%, 45.474243%, 53.678894%)" offset="0.46875"/><stop stop-opacity="1" stop-color="rgb(99.623108%, 45.141602%, 53.651428%)" offset="0.476562"/><stop stop-opacity="1" stop-color="rgb(99.617004%, 44.80896%, 53.623962%)" offset="0.484375"/><stop stop-opacity="1" stop-color="rgb(99.609375%, 44.476318%, 53.596497%)" offset="0.492188"/><stop stop-opacity="1" stop-color="rgb(99.603271%, 44.143677%, 53.569031%)" offset="0.5"/><stop stop-opacity="1" stop-color="rgb(99.597168%, 43.811035%, 53.541565%)" offset="0.507813"/><stop stop-opacity="1" stop-color="rgb(99.591064%, 43.478394%, 53.514099%)" offset="0.515625"/><stop stop-opacity="1" stop-color="rgb(99.584961%, 43.145752%, 53.486633%)" offset="0.523438"/><stop stop-opacity="1" stop-color="rgb(99.578857%, 42.814636%, 53.459167%)" offset="0.53125"/><stop stop-opacity="1" stop-color="rgb(99.572754%, 42.481995%, 53.431702%)" offset="0.539062"/><stop stop-opacity="1" stop-color="rgb(99.56665%, 42.149353%, 53.404236%)" offset="0.546875"/><stop stop-opacity="1" stop-color="rgb(99.560547%, 41.816711%, 53.37677%)" offset="0.554688"/><stop stop-opacity="1" stop-color="rgb(99.552917%, 41.48407%, 53.349304%)" offset="0.5625"/><stop stop-opacity="1" stop-color="rgb(99.546814%, 41.151428%, 53.321838%)" offset="0.570312"/><stop stop-opacity="1" stop-color="rgb(99.54071%, 40.818787%, 53.294373%)" offset="0.578125"/><stop stop-opacity="1" stop-color="rgb(99.534607%, 40.486145%, 53.266907%)" offset="0.585938"/><stop stop-opacity="1" stop-color="rgb(99.528503%, 40.153503%, 53.239441%)" offset="0.59375"/><stop stop-opacity="1" stop-color="rgb(99.5224%, 39.820862%, 53.211975%)" offset="0.601562"/><stop stop-opacity="1" stop-color="rgb(99.516296%, 39.489746%, 53.184509%)" offset="0.609375"/><stop stop-opacity="1" stop-color="rgb(99.510193%, 39.157104%, 53.157043%)" offset="0.617188"/><stop stop-opacity="1" stop-color="rgb(99.504089%, 38.824463%, 53.129578%)" offset="0.625"/><stop stop-opacity="1" stop-color="rgb(99.49646%, 38.491821%, 53.102112%)" offset="0.632812"/><stop stop-opacity="1" stop-color="rgb(99.490356%, 38.15918%, 53.076172%)" offset="0.640625"/><stop stop-opacity="1" stop-color="rgb(99.484253%, 37.826538%, 53.048706%)" offset="0.648438"/><stop stop-opacity="1" stop-color="rgb(99.478149%, 37.493896%, 53.02124%)" offset="0.65625"/><stop stop-opacity="1" stop-color="rgb(99.472046%, 37.161255%, 52.993774%)" offset="0.664062"/><stop stop-opacity="1" stop-color="rgb(99.465942%, 36.828613%, 52.966309%)" offset="0.671875"/><stop stop-opacity="1" stop-color="rgb(99.459839%, 36.497498%, 52.938843%)" offset="0.679688"/><stop stop-opacity="1" stop-color="rgb(99.453735%, 36.164856%, 52.911377%)" offset="0.6875"/><stop stop-opacity="1" stop-color="rgb(99.447632%, 35.832214%, 52.883911%)" offset="0.695313"/><stop stop-opacity="1" stop-color="rgb(99.440002%, 35.499573%, 52.856445%)" offset="0.703125"/><stop stop-opacity="1" stop-color="rgb(99.433899%, 35.166931%, 52.828979%)" offset="0.710938"/><stop stop-opacity="1" stop-color="rgb(99.427795%, 34.83429%, 52.801514%)" offset="0.71875"/><stop stop-opacity="1" stop-color="rgb(99.421692%, 34.501648%, 52.774048%)" offset="0.726562"/><stop stop-opacity="1" stop-color="rgb(99.415588%, 34.169006%, 52.746582%)" offset="0.734375"/><stop stop-opacity="1" stop-color="rgb(99.409485%, 33.836365%, 52.719116%)" offset="0.742188"/><stop stop-opacity="1" stop-color="rgb(99.403381%, 33.505249%, 52.69165%)" offset="0.75"/><stop stop-opacity="1" stop-color="rgb(99.397278%, 33.172607%, 52.664185%)" offset="0.757812"/><stop stop-opacity="1" stop-color="rgb(99.391174%, 32.839966%, 52.636719%)" offset="0.765625"/><stop stop-opacity="1" stop-color="rgb(99.383545%, 32.507324%, 52.609253%)" offset="0.773438"/><stop stop-opacity="1" stop-color="rgb(99.377441%, 32.174683%, 52.581787%)" offset="0.78125"/><stop stop-opacity="1" stop-color="rgb(99.371338%, 31.842041%, 52.554321%)" offset="0.789062"/><stop stop-opacity="1" stop-color="rgb(99.365234%, 31.509399%, 52.526855%)" offset="0.796875"/><stop stop-opacity="1" stop-color="rgb(99.359131%, 31.176758%, 52.49939%)" offset="0.804687"/><stop stop-opacity="1" stop-color="rgb(99.353027%, 30.844116%, 52.471924%)" offset="0.8125"/><stop stop-opacity="1" stop-color="rgb(99.346924%, 30.513%, 52.444458%)" offset="0.820312"/><stop stop-opacity="1" stop-color="rgb(99.34082%, 30.180359%, 52.416992%)" offset="0.828125"/><stop stop-opacity="1" stop-color="rgb(99.334717%, 29.847717%, 52.389526%)" offset="0.835938"/><stop stop-opacity="1" stop-color="rgb(99.327087%, 29.515076%, 52.362061%)" offset="0.84375"/><stop stop-opacity="1" stop-color="rgb(99.320984%, 29.182434%, 52.334595%)" offset="0.851562"/><stop stop-opacity="1" stop-color="rgb(99.31488%, 28.849792%, 52.307129%)" offset="0.859375"/><stop stop-opacity="1" stop-color="rgb(99.308777%, 28.517151%, 52.279663%)" offset="0.867188"/><stop stop-opacity="1" stop-color="rgb(99.302673%, 28.184509%, 52.252197%)" offset="0.875"/><stop stop-opacity="1" stop-color="rgb(99.29657%, 27.851868%, 52.224731%)" offset="0.882812"/><stop stop-opacity="1" stop-color="rgb(99.290466%, 27.520752%, 52.197266%)" offset="0.890625"/><stop stop-opacity="1" stop-color="rgb(99.284363%, 27.18811%, 52.1698%)" offset="0.898438"/><stop stop-opacity="1" stop-color="rgb(99.278259%, 26.855469%, 52.142334%)" offset="0.90625"/><stop stop-opacity="1" stop-color="rgb(99.27063%, 26.522827%, 52.114868%)" offset="0.914062"/><stop stop-opacity="1" stop-color="rgb(99.264526%, 26.190186%, 52.087402%)" offset="0.921875"/><stop stop-opacity="1" stop-color="rgb(99.258423%, 25.857544%, 52.059937%)" offset="0.929688"/><stop stop-opacity="1" stop-color="rgb(99.252319%, 25.524902%, 52.032471%)" offset="0.9375"/><stop stop-opacity="1" stop-color="rgb(99.246216%, 25.192261%, 52.005005%)" offset="0.945312"/><stop stop-opacity="1" stop-color="rgb(99.240112%, 24.859619%, 51.977539%)" offset="0.953125"/><stop stop-opacity="1" stop-color="rgb(99.234009%, 24.528503%, 51.950073%)" offset="0.960938"/><stop stop-opacity="1" stop-color="rgb(99.227905%, 24.195862%, 51.922607%)" offset="0.96875"/><stop stop-opacity="1" stop-color="rgb(99.221802%, 23.86322%, 51.895142%)" offset="0.976562"/><stop stop-opacity="1" stop-color="rgb(99.214172%, 23.530579%, 51.867676%)" offset="0.984375"/><stop stop-opacity="1" stop-color="rgb(99.208069%, 23.197937%, 51.84021%)" offset="0.992187"/><stop stop-opacity="1" stop-color="rgb(99.201965%, 22.865295%, 51.812744%)" offset="1"/></linearGradient></defs><g clip-path="url(#id1)"><g clip-path="url(#id2)"><path fill="url(#id3)" d="M 64.195312 63.175781 L 64.195312 713.425781 L 712.292969 713.425781 L 712.292969 63.175781 Z M 64.195312 63.175781 " fill-rule="nonzero"/></g></g></svg>